<svg version="1.1" viewBox="0.0 0.0 960.0 540.0" fill="none" stroke="none" stroke-linecap="square" stroke-miterlimit="10" xmlns:xlink="http://www.w3.org/1999/xlink" xmlns="http://www.w3.org/2000/svg"><clipPath id="g127b7c7105d_0_59.0"><path d="m0 0l960.0 0l0 540.0l-960.0 0l0 -540.0z" clip-rule="nonzero"/></clipPath><g clip-path="url(#g127b7c7105d_0_59.0)"><path fill="#eeeeee" d="m0 0l960.0 0l0 540.0l-960.0 0z" fill-rule="evenodd"/><path fill="#000000" fill-opacity="0.0" d="m123.20823 80.608925l894.55115 0l0 215.49606l-894.55115 0z" fill-rule="evenodd"/><path fill="#000000" d="m276.89447 264.06497l0 -68.71875l22.265625 0q12.65625 0 16.5 1.03125q5.90625 1.546875 9.890625 6.734375q3.984375 5.171875 3.984375 13.375q0 6.328125 -2.296875 10.640625q-2.296875 4.3125 -5.84375 6.78125q-3.53125 2.453125 -7.1875 3.25q-4.96875 0.984375 -14.390625 0.984375l-9.046875 0l0 25.921875l-13.875 0zm13.875 -57.09375l0 19.5l7.59375 0q8.203125 0 10.96875 -1.078125q2.765625 -1.078125 4.328125 -3.375q1.578125 -2.296875 1.578125 -5.34375q0 -3.75 -2.203125 -6.1875q-2.203125 -2.4375 -5.578125 -3.046875q-2.484375 -0.46875 -9.984375 -0.46875l-6.703125 0zm50.0625 0.5625l0 -12.1875l13.171875 0l0 12.1875l-13.171875 0zm0 56.53125l0 -49.78125l13.171875 0l0 49.78125l-13.171875 0zm26.296875 -49.78125l12.28125 0l0 7.3125q2.390625 -3.75 6.46875 -6.09375q4.078125 -2.34375 9.046875 -2.34375q8.671875 0 14.71875 6.796875q6.046875 6.796875 6.046875 18.9375q0 12.46875 -6.09375 19.390625q-6.09375 6.90625 -14.765625 6.90625q-4.125 0 -7.484375 -1.640625q-3.34375 -1.640625 -7.046875 -5.625l0 25.078125l-13.171875 0l0 -68.71875zm13.03125 24.046875q0 8.390625 3.328125 12.40625q3.328125 4.0 8.109375 4.0q4.59375 0 7.640625 -3.671875q3.046875 -3.6875 3.046875 -12.078125q0 -7.828125 -3.140625 -11.625q-3.140625 -3.796875 -7.78125 -3.796875q-4.828125 0 -8.015625 3.734375q-3.1875 3.71875 -3.1875 11.03125zm74.8125 9.890625l13.125 2.203125q-2.53125 7.21875 -8.0 11.0q-5.453125 3.765625 -13.65625 3.765625q-12.984375 0 -19.21875 -8.484375q-4.921875 -6.796875 -4.921875 -17.15625q0 -12.375 6.46875 -19.375q6.46875 -7.015625 16.359375 -7.015625q11.109375 0 17.53125 7.34375q6.421875 7.328125 6.140625 22.46875l-33.0 0q0.140625 5.859375 3.1875 9.125q3.046875 3.25 7.59375 3.25q3.09375 0 5.203125 -1.6875q2.109375 -1.6875 3.1875 -5.4375zm0.75 -13.3125q-0.140625 -5.71875 -2.953125 -8.6875q-2.8125 -2.984375 -6.84375 -2.984375q-4.3125 0 -7.125 3.140625q-2.8125 3.140625 -2.765625 8.53125l19.6875 0zm23.8125 29.15625l0 -68.71875l13.171875 0l0 68.71875l-13.171875 0zm26.671875 -56.53125l0 -12.1875l13.171875 0l0 12.1875l-13.171875 0zm0 56.53125l0 -49.78125l13.171875 0l0 49.78125l-13.171875 0zm71.953125 0l-13.171875 0l0 -25.40625q0 -8.0625 -0.84375 -10.421875q-0.84375 -2.375 -2.75 -3.6875q-1.890625 -1.3125 -4.5625 -1.3125q-3.421875 0 -6.140625 1.875q-2.71875 1.875 -3.734375 4.96875q-1.0 3.09375 -1.0 11.4375l0 22.546875l-13.171875 0l0 -49.78125l12.234375 0l0 7.3125q6.515625 -8.4375 16.40625 -8.4375q4.359375 0 7.96875 1.578125q3.609375 1.5625 5.453125 4.0q1.859375 2.4375 2.578125 5.53125q0.734375 3.09375 0.734375 8.859375l0 30.9375zm42.1875 -15.84375l13.125 2.203125q-2.53125 7.21875 -8.0 11.0q-5.453125 3.765625 -13.65625 3.765625q-12.984375 0 -19.21875 -8.484375q-4.921875 -6.796875 -4.921875 -17.15625q0 -12.375 6.46875 -19.375q6.46875 -7.015625 16.359375 -7.015625q11.109375 0 17.53125 7.34375q6.421875 7.328125 6.140625 22.46875l-33.0 0q0.140625 5.859375 3.1875 9.125q3.046875 3.25 7.59375 3.25q3.09375 0 5.203125 -1.6875q2.109375 -1.6875 3.1875 -5.4375zm0.75 -13.3125q-0.140625 -5.71875 -2.953125 -8.6875q-2.8125 -2.984375 -6.84375 -2.984375q-4.3125 0 -7.125 3.140625q-2.8125 3.140625 -2.765625 8.53125l19.6875 0z" fill-rule="nonzero"/><path fill="#000000" d="m669.917 195.34622l25.359375 0q8.578125 0 13.078125 1.3125q6.046875 1.78125 10.359375 6.328125q4.3125 4.546875 6.5625 11.140625q2.25 6.578125 2.25 16.234375q0 8.484375 -2.109375 14.625q-2.578125 7.5 -7.359375 12.140625q-3.609375 3.515625 -9.75 5.484375q-4.59375 1.453125 -12.28125 1.453125l-26.109375 0l0 -68.71875zm13.875 11.625l0 45.515625l10.359375 0q5.8125 0 8.390625 -0.65625q3.375 -0.84375 5.59375 -2.859375q2.234375 -2.015625 3.640625 -6.625q1.40625 -4.625 1.40625 -12.59375q0 -7.96875 -1.40625 -12.234375q-1.40625 -4.265625 -3.9375 -6.65625q-2.53125 -2.390625 -6.421875 -3.234375q-2.90625 -0.65625 -11.390625 -0.65625l-6.234375 0zm65.25 22.5l-11.953125 -2.15625q2.015625 -7.21875 6.9375 -10.6875q4.921875 -3.46875 14.625 -3.46875q8.8125 0 13.125 2.09375q4.3125 2.078125 6.0625 5.296875q1.765625 3.203125 1.765625 11.78125l-0.140625 15.375q0 6.5625 0.625 9.6875q0.640625 3.109375 2.375 6.671875l-13.03125 0q-0.515625 -1.3125 -1.265625 -3.890625q-0.328125 -1.171875 -0.46875 -1.546875q-3.375 3.28125 -7.21875 4.921875q-3.84375 1.640625 -8.203125 1.640625q-7.6875 0 -12.125 -4.171875q-4.421875 -4.171875 -4.421875 -10.546875q0 -4.21875 2.015625 -7.515625q2.015625 -3.3125 5.640625 -5.0625q3.640625 -1.765625 10.484375 -3.078125q9.234375 -1.734375 12.796875 -3.234375l0 -1.3125q0 -3.796875 -1.875 -5.40625q-1.875 -1.625 -7.078125 -1.625q-3.515625 0 -5.484375 1.390625q-1.96875 1.375 -3.1875 4.84375zm17.625 10.6875q-2.53125 0.84375 -8.015625 2.015625q-5.484375 1.171875 -7.171875 2.296875q-2.578125 1.828125 -2.578125 4.640625q0 2.765625 2.0625 4.78125q2.0625 2.015625 5.25 2.015625q3.5625 0 6.796875 -2.34375q2.390625 -1.78125 3.140625 -4.359375q0.515625 -1.6875 0.515625 -6.421875l0 -2.625zm48.75 -25.875l0 10.5l-9.0 0l0 20.0625q0 6.09375 0.25 7.109375q0.265625 1.0 1.171875 1.65625q0.921875 0.65625 2.234375 0.65625q1.828125 0 5.296875 -1.265625l1.125 10.21875q-4.59375 1.96875 -10.40625 1.96875q-3.5625 0 -6.421875 -1.1875q-2.859375 -1.203125 -4.203125 -3.09375q-1.328125 -1.90625 -1.84375 -5.140625q-0.421875 -2.296875 -0.421875 -9.28125l0 -21.703125l-6.046875 0l0 -10.5l6.046875 0l0 -9.890625l13.21875 -7.6875l0 17.578125l9.0 0zm18.984375 15.1875l-11.953125 -2.15625q2.015625 -7.21875 6.9375 -10.6875q4.921875 -3.46875 14.625 -3.46875q8.8125 0 13.125 2.09375q4.3125 2.078125 6.0625 5.296875q1.765625 3.203125 1.765625 11.78125l-0.140625 15.375q0 6.5625 0.625 9.6875q0.640625 3.109375 2.375 6.671875l-13.03125 0q-0.515625 -1.3125 -1.265625 -3.890625q-0.328125 -1.171875 -0.46875 -1.546875q-3.375 3.28125 -7.21875 4.921875q-3.84375 1.640625 -8.203125 1.640625q-7.6875 0 -12.125 -4.171875q-4.421875 -4.171875 -4.421875 -10.546875q0 -4.21875 2.015625 -7.515625q2.015625 -3.3125 5.640625 -5.0625q3.640625 -1.765625 10.484375 -3.078125q9.234375 -1.734375 12.796875 -3.234375l0 -1.3125q0 -3.796875 -1.875 -5.40625q-1.875 -1.625 -7.078125 -1.625q-3.515625 0 -5.484375 1.390625q-1.96875 1.375 -3.1875 4.84375zm17.625 10.6875q-2.53125 0.84375 -8.015625 2.015625q-5.484375 1.171875 -7.171875 2.296875q-2.578125 1.828125 -2.578125 4.640625q0 2.765625 2.0625 4.78125q2.0625 2.015625 5.25 2.015625q3.5625 0 6.796875 -2.34375q2.390625 -1.78125 3.140625 -4.359375q0.515625 -1.6875 0.515625 -6.421875l0 -2.625z" fill-rule="nonzero"/><path fill="#000000" fill-opacity="0.0" d="m623.4619 308.94226l294.96063 0l0 83.212585l-294.96063 0z" fill-rule="evenodd"/><path fill="#999999" d="m645.36816 355.22537l0 -2.625l9.5 -0.015625l0 8.3125q-2.1875 1.75 -4.515625 2.625q-2.3125 0.875 -4.765625 0.875q-3.296875 0 -6.0 -1.40625q-2.703125 -1.421875 -4.078125 -4.09375q-1.375 -2.671875 -1.375 -5.984375q0 -3.265625 1.359375 -6.09375q1.375 -2.84375 3.9375 -4.21875q2.578125 -1.390625 5.921875 -1.390625q2.4375 0 4.40625 0.796875q1.96875 0.78125 3.078125 2.1875q1.125 1.40625 1.703125 3.671875l-2.6875 0.734375q-0.5 -1.703125 -1.25 -2.6875q-0.75 -0.984375 -2.140625 -1.5625q-1.390625 -0.59375 -3.09375 -0.59375q-2.03125 0 -3.515625 0.625q-1.484375 0.609375 -2.390625 1.625q-0.90625 1.0 -1.421875 2.21875q-0.84375 2.078125 -0.84375 4.5q0 3.0 1.03125 5.03125q1.03125 2.015625 3.0 3.0q1.96875 0.96875 4.1875 0.96875q1.9375 0 3.765625 -0.734375q1.84375 -0.75 2.78125 -1.59375l0 -4.171875l-6.59375 0zm24.133667 6.796875q-1.53125 1.296875 -2.953125 1.828125q-1.40625 0.53125 -3.03125 0.53125q-2.6875 0 -4.125 -1.296875q-1.4375 -1.3125 -1.4375 -3.34375q0 -1.1875 0.546875 -2.171875q0.546875 -1.0 1.421875 -1.59375q0.890625 -0.59375 1.984375 -0.90625q0.8125 -0.203125 2.453125 -0.40625q3.328125 -0.40625 4.90625 -0.953125q0.015625 -0.5625 0.015625 -0.71875q0 -1.6875 -0.78125 -2.375q-1.0625 -0.921875 -3.140625 -0.921875q-1.9375 0 -2.875 0.6875q-0.921875 0.671875 -1.359375 2.390625l-2.6875 -0.359375q0.359375 -1.734375 1.203125 -2.796875q0.84375 -1.0625 2.4375 -1.625q1.59375 -0.578125 3.6875 -0.578125q2.078125 0 3.375 0.484375q1.296875 0.484375 1.90625 1.234375q0.625 0.734375 0.859375 1.875q0.140625 0.703125 0.140625 2.53125l0 3.671875q0 3.84375 0.171875 4.859375q0.1875 1.015625 0.703125 1.953125l-2.875 0q-0.4375 -0.859375 -0.546875 -2.0zm-0.234375 -6.15625q-1.5 0.609375 -4.5 1.046875q-1.703125 0.234375 -2.40625 0.546875q-0.703125 0.3125 -1.09375 0.90625q-0.375 0.578125 -0.375 1.296875q0 1.09375 0.828125 1.828125q0.84375 0.734375 2.453125 0.734375q1.59375 0 2.828125 -0.6875q1.234375 -0.703125 1.828125 -1.90625q0.4375 -0.9375 0.4375 -2.75l0 -1.015625zm7.063843 -11.109375l0 -3.15625l2.75 0l0 3.15625l-2.75 0zm0 19.265625l0 -16.25l2.75 0l0 16.25l-2.75 0zm6.944519 0l0 -16.25l2.484375 0l0 2.3125q1.78125 -2.671875 5.171875 -2.671875q1.46875 0 2.6875 0.53125q1.234375 0.515625 1.84375 1.375q0.625 0.859375 0.859375 2.03125q0.15625 0.765625 0.15625 2.6875l0 9.984375l-2.75 0l0 -9.875q0 -1.6875 -0.328125 -2.515625q-0.3125 -0.84375 -1.140625 -1.328125q-0.8125 -0.5 -1.921875 -0.5q-1.75 0 -3.03125 1.109375q-1.28125 1.109375 -1.28125 4.234375l0 8.875l-2.75 0z" fill-rule="nonzero"/><path fill="#999999" d="m709.70374 364.02225l0 -22.421875l2.96875 0l0 22.421875l-2.96875 0zm7.8446045 0l0 -16.25l2.484375 0l0 2.3125q1.78125 -2.671875 5.171875 -2.671875q1.46875 0 2.6875 0.53125q1.234375 0.515625 1.84375 1.375q0.625 0.859375 0.859375 2.03125q0.15625 0.765625 0.15625 2.6875l0 9.984375l-2.75 0l0 -9.875q0 -1.6875 -0.328125 -2.515625q-0.3125 -0.84375 -1.140625 -1.328125q-0.8125 -0.5 -1.921875 -0.5q-1.75 0 -3.03125 1.109375q-1.28125 1.109375 -1.28125 4.234375l0 8.875l-2.75 0zm16.329468 -4.84375l2.71875 -0.4375q0.234375 1.640625 1.28125 2.515625q1.046875 0.875 2.921875 0.875q1.90625 0 2.8125 -0.765625q0.921875 -0.78125 0.921875 -1.828125q0 -0.9375 -0.8125 -1.46875q-0.5625 -0.359375 -2.8125 -0.9375q-3.03125 -0.765625 -4.203125 -1.3125q-1.171875 -0.5625 -1.78125 -1.546875q-0.59375 -0.984375 -0.59375 -2.1875q0 -1.078125 0.5 -2.0q0.5 -0.9375 1.359375 -1.546875q0.640625 -0.46875 1.75 -0.796875q1.109375 -0.328125 2.375 -0.328125q1.90625 0 3.34375 0.546875q1.453125 0.546875 2.140625 1.5q0.6875 0.9375 0.953125 2.515625l-2.6875 0.359375q-0.1875 -1.25 -1.078125 -1.953125q-0.875 -0.703125 -2.46875 -0.703125q-1.90625 0 -2.71875 0.625q-0.8125 0.625 -0.8125 1.46875q0 0.53125 0.34375 0.953125q0.328125 0.453125 1.046875 0.734375q0.421875 0.15625 2.4375 0.71875q2.921875 0.765625 4.078125 1.265625q1.15625 0.5 1.8125 1.453125q0.65625 0.9375 0.65625 2.359375q0 1.375 -0.8125 2.59375q-0.796875 1.203125 -2.3125 1.875q-1.5 0.65625 -3.421875 0.65625q-3.171875 0 -4.828125 -1.3125q-1.65625 -1.3125 -2.109375 -3.890625zm16.773438 -14.421875l0 -3.15625l2.75 0l0 3.15625l-2.75 0zm0 19.265625l0 -16.25l2.75 0l0 16.25l-2.75 0zm6.444458 1.34375l2.671875 0.40625q0.171875 1.234375 0.9375 1.796875q1.015625 0.765625 2.796875 0.765625q1.90625 0 2.953125 -0.765625q1.046875 -0.765625 1.40625 -2.140625q0.21875 -0.84375 0.203125 -3.53125q-1.8125 2.125 -4.5 2.125q-3.34375 0 -5.1875 -2.40625q-1.828125 -2.421875 -1.828125 -5.8125q0 -2.328125 0.828125 -4.28125q0.84375 -1.96875 2.4375 -3.03125q1.609375 -1.078125 3.765625 -1.078125q2.875 0 4.734375 2.328125l0 -1.96875l2.546875 0l0 14.046875q0 3.796875 -0.78125 5.375q-0.765625 1.578125 -2.4375 2.5q-1.671875 0.921875 -4.125 0.921875q-2.90625 0 -4.703125 -1.3125q-1.78125 -1.296875 -1.71875 -3.9375zm2.28125 -9.75q0 3.1875 1.265625 4.65625q1.265625 1.46875 3.1875 1.46875q1.890625 0 3.171875 -1.453125q1.28125 -1.46875 1.28125 -4.59375q0 -2.96875 -1.328125 -4.484375q-1.3125 -1.515625 -3.171875 -1.515625q-1.84375 0 -3.125 1.5q-1.28125 1.484375 -1.28125 4.421875zm15.641968 8.40625l0 -22.421875l2.75 0l0 8.046875q1.9375 -2.234375 4.875 -2.234375q1.796875 0 3.125 0.71875q1.34375 0.703125 1.90625 1.953125q0.578125 1.25 0.578125 3.640625l0 10.296875l-2.75 0l0 -10.296875q0 -2.0625 -0.90625 -3.0q-0.890625 -0.9375 -2.53125 -0.9375q-1.21875 0 -2.296875 0.640625q-1.078125 0.625 -1.546875 1.71875q-0.453125 1.078125 -0.453125 2.984375l0 8.890625l-2.75 0zm23.438843 -2.46875l0.390625 2.4375q-1.15625 0.25 -2.078125 0.25q-1.5 0 -2.328125 -0.46875q-0.8125 -0.484375 -1.15625 -1.25q-0.34375 -0.78125 -0.34375 -3.25l0 -9.359375l-2.015625 0l0 -2.140625l2.015625 0l0 -4.015625l2.75 -1.65625l0 5.671875l2.765625 0l0 2.140625l-2.765625 0l0 9.5q0 1.1875 0.140625 1.53125q0.140625 0.328125 0.46875 0.53125q0.328125 0.1875 0.953125 0.1875q0.453125 0 1.203125 -0.109375z" fill-rule="nonzero"/><path fill="#999999" d="m807.22894 353.03787l0 -2.703125l42.8125 0l-5.703125 -6.90625l1.484375 -1.578125l9.40625 9.890625l-9.40625 9.78125l-1.484375 -1.578125l5.703125 -6.90625l-42.8125 0z" fill-rule="nonzero"/><path fill="#000000" fill-opacity="0.0" d="m321.8504 279.8714l535.68506 0l0 29.070862l-535.68506 0z" fill-rule="evenodd"/><path fill="#edecec" d="m330.8504 288.8714l515.375 0l0 9.600006l-515.375 0l0 -9.600006z" fill-rule="nonzero"/><path fill="#000000" fill-opacity="0.0" d="m330.8504 289.3092l515.375 0l0 9.199219l-515.375 0l0 -9.199219z" fill-rule="nonzero"/><path fill="#000000" d="m331.24103 293.75452q0 -1.421875 0.765625 -2.21875q0.765625 -0.8125 1.96875 -0.8125q0.796875 0 1.4375 0.375q0.640625 0.375 0.96875 1.0625q0.328125 0.671875 0.328125 1.53125q0 0.875 -0.359375 1.5625q-0.34375 0.6875 -0.984375 1.046875q-0.640625 0.34375 -1.390625 0.34375q-0.8125 0 -1.453125 -0.390625q-0.625 -0.390625 -0.953125 -1.0625q-0.328125 -0.671875 -0.328125 -1.4375zm0.78125 0.015625q0 1.03125 0.546875 1.640625q0.5625 0.59375 1.40625 0.59375q0.859375 0 1.40625 -0.59375q0.546875 -0.609375 0.546875 -1.71875q0 -0.703125 -0.234375 -1.21875q-0.234375 -0.53125 -0.6875 -0.8125q-0.453125 -0.28125 -1.015625 -0.28125q-0.8125 0 -1.390625 0.546875q-0.578125 0.546875 -0.578125 1.84375zm8.300781 2.78125l0 -0.609375q-0.484375 0.703125 -1.3125 0.703125q-0.375 0 -0.703125 -0.140625q-0.3125 -0.140625 -0.46875 -0.34375q-0.140625 -0.21875 -0.203125 -0.53125q-0.046875 -0.203125 -0.046875 -0.65625l0 -2.578125l0.703125 0l0 2.3125q0 0.546875 0.046875 0.734375q0.0625 0.28125 0.265625 0.4375q0.21875 0.15625 0.546875 0.15625q0.3125 0 0.578125 -0.15625q0.28125 -0.171875 0.390625 -0.4375q0.125 -0.28125 0.125 -0.8125l0 -2.234375l0.703125 0l0 4.15625l-0.625 0zm1.7148438 0l0 -4.15625l0.640625 0l0 0.640625q0.234375 -0.453125 0.4375 -0.59375q0.21875 -0.140625 0.453125 -0.140625q0.359375 0 0.734375 0.234375l-0.25 0.65625q-0.25 -0.15625 -0.515625 -0.15625q-0.234375 0 -0.421875 0.140625q-0.171875 0.140625 -0.25 0.375q-0.125 0.375 -0.125 0.828125l0 2.171875l-0.703125 0zm7.5898438 0l0 -0.53125q-0.390625 0.625 -1.15625 0.625q-0.5 0 -0.921875 -0.265625q-0.40625 -0.28125 -0.640625 -0.765625q-0.21875 -0.5 -0.21875 -1.140625q0 -0.609375 0.203125 -1.109375q0.203125 -0.515625 0.609375 -0.78125q0.421875 -0.28125 0.9375 -0.28125q0.375 0 0.65625 0.171875q0.296875 0.15625 0.484375 0.40625l0 -2.0625l0.703125 0l0 5.734375l-0.65625 0zm-2.21875 -2.078125q0 0.796875 0.328125 1.203125q0.34375 0.390625 0.796875 0.390625q0.46875 0 0.78125 -0.375q0.328125 -0.375 0.328125 -1.15625q0 -0.84375 -0.328125 -1.234375q-0.328125 -0.40625 -0.8125 -0.40625q-0.46875 0 -0.78125 0.390625q-0.3125 0.375 -0.3125 1.1875zm6.6835938 1.5625q-0.390625 0.328125 -0.75 0.46875q-0.359375 0.140625 -0.78125 0.140625q-0.671875 0 -1.046875 -0.328125q-0.359375 -0.34375 -0.359375 -0.859375q0 -0.3125 0.125 -0.5625q0.140625 -0.25 0.359375 -0.390625q0.234375 -0.15625 0.515625 -0.234375q0.203125 -0.0625 0.625 -0.109375q0.859375 -0.109375 1.25 -0.25q0.015625 -0.140625 0.015625 -0.171875q0 -0.4375 -0.203125 -0.609375q-0.265625 -0.234375 -0.796875 -0.234375q-0.5 0 -0.734375 0.171875q-0.234375 0.171875 -0.359375 0.609375l-0.6875 -0.09375q0.09375 -0.4375 0.3125 -0.703125q0.21875 -0.28125 0.625 -0.421875q0.40625 -0.15625 0.9375 -0.15625q0.53125 0 0.859375 0.125q0.34375 0.125 0.5 0.328125q0.15625 0.1875 0.21875 0.46875q0.03125 0.1875 0.03125 0.65625l0 0.9375q0 0.96875 0.046875 1.234375q0.046875 0.265625 0.171875 0.5l-0.734375 0q-0.109375 -0.21875 -0.140625 -0.515625zm-0.0625 -1.5625q-0.375 0.15625 -1.140625 0.265625q-0.4375 0.0625 -0.625 0.140625q-0.171875 0.078125 -0.265625 0.234375q-0.09375 0.140625 -0.09375 0.328125q0 0.28125 0.203125 0.46875q0.21875 0.1875 0.625 0.1875q0.40625 0 0.71875 -0.171875q0.328125 -0.1875 0.46875 -0.5q0.109375 -0.234375 0.109375 -0.703125l0 -0.25zm3.3398438 1.453125l0.109375 0.609375q-0.296875 0.078125 -0.53125 0.078125q-0.390625 0 -0.609375 -0.125q-0.203125 -0.125 -0.296875 -0.3125q-0.078125 -0.203125 -0.078125 -0.84375l0 -2.390625l-0.515625 0l0 -0.546875l0.515625 0l0 -1.015625l0.703125 -0.421875l0 1.4375l0.703125 0l0 0.546875l-0.703125 0l0 2.4375q0 0.296875 0.03125 0.390625q0.046875 0.078125 0.125 0.125q0.078125 0.046875 0.234375 0.046875q0.125 0 0.3125 -0.015625zm3.3945312 0.109375q-0.390625 0.328125 -0.75 0.46875q-0.359375 0.140625 -0.78125 0.140625q-0.671875 0 -1.046875 -0.328125q-0.359375 -0.34375 -0.359375 -0.859375q0 -0.3125 0.125 -0.5625q0.140625 -0.25 0.359375 -0.390625q0.234375 -0.15625 0.515625 -0.234375q0.203125 -0.0625 0.625 -0.109375q0.859375 -0.109375 1.25 -0.25q0.015625 -0.140625 0.015625 -0.171875q0 -0.4375 -0.203125 -0.609375q-0.265625 -0.234375 -0.796875 -0.234375q-0.5 0 -0.734375 0.171875q-0.234375 0.171875 -0.359375 0.609375l-0.6875 -0.09375q0.09375 -0.4375 0.3125 -0.703125q0.21875 -0.28125 0.625 -0.421875q0.40625 -0.15625 0.9375 -0.15625q0.53125 0 0.859375 0.125q0.34375 0.125 0.5 0.328125q0.15625 0.1875 0.21875 0.46875q0.03125 0.1875 0.03125 0.65625l0 0.9375q0 0.96875 0.046875 1.234375q0.046875 0.265625 0.171875 0.5l-0.734375 0q-0.109375 -0.21875 -0.140625 -0.515625zm-0.0625 -1.5625q-0.375 0.15625 -1.140625 0.265625q-0.4375 0.0625 -0.625 0.140625q-0.171875 0.078125 -0.265625 0.234375q-0.09375 0.140625 -0.09375 0.328125q0 0.28125 0.203125 0.46875q0.21875 0.1875 0.625 0.1875q0.40625 0 0.71875 -0.171875q0.328125 -0.1875 0.46875 -0.5q0.109375 -0.234375 0.109375 -0.703125l0 -0.25zm6.734375 1.5625q-0.390625 0.328125 -0.75 0.46875q-0.359375 0.140625 -0.78125 0.140625q-0.671875 0 -1.046875 -0.328125q-0.359375 -0.34375 -0.359375 -0.859375q0 -0.3125 0.125 -0.5625q0.140625 -0.25 0.359375 -0.390625q0.234375 -0.15625 0.515625 -0.234375q0.203125 -0.0625 0.625 -0.109375q0.859375 -0.109375 1.25 -0.25q0.015625 -0.140625 0.015625 -0.171875q0 -0.4375 -0.203125 -0.609375q-0.265625 -0.234375 -0.796875 -0.234375q-0.5 0 -0.734375 0.171875q-0.234375 0.171875 -0.359375 0.609375l-0.6875 -0.09375q0.09375 -0.4375 0.3125 -0.703125q0.21875 -0.28125 0.625 -0.421875q0.40625 -0.15625 0.9375 -0.15625q0.53125 0 0.859375 0.125q0.34375 0.125 0.5 0.328125q0.15625 0.1875 0.21875 0.46875q0.03125 0.1875 0.03125 0.65625l0 0.9375q0 0.96875 0.046875 1.234375q0.046875 0.265625 0.171875 0.5l-0.734375 0q-0.109375 -0.21875 -0.140625 -0.515625zm-0.0625 -1.5625q-0.375 0.15625 -1.140625 0.265625q-0.4375 0.0625 -0.625 0.140625q-0.171875 0.078125 -0.265625 0.234375q-0.09375 0.140625 -0.09375 0.328125q0 0.28125 0.203125 0.46875q0.21875 0.1875 0.625 0.1875q0.40625 0 0.71875 -0.171875q0.328125 -0.1875 0.46875 -0.5q0.109375 -0.234375 0.109375 -0.703125l0 -0.25zm1.8085938 2.078125l0 -4.15625l0.625 0l0 0.59375q0.46875 -0.6875 1.328125 -0.6875q0.375 0 0.6875 0.140625q0.3125 0.140625 0.46875 0.359375q0.15625 0.21875 0.21875 0.515625q0.046875 0.1875 0.046875 0.6875l0 2.546875l-0.703125 0l0 -2.53125q0 -0.421875 -0.09375 -0.625q-0.078125 -0.21875 -0.296875 -0.34375q-0.203125 -0.140625 -0.484375 -0.140625q-0.4375 0 -0.765625 0.296875q-0.328125 0.28125 -0.328125 1.078125l0 2.265625l-0.703125 0zm7.1523438 -0.515625q-0.390625 0.328125 -0.75 0.46875q-0.359375 0.140625 -0.78125 0.140625q-0.671875 0 -1.046875 -0.328125q-0.359375 -0.34375 -0.359375 -0.859375q0 -0.3125 0.125 -0.5625q0.140625 -0.25 0.359375 -0.390625q0.234375 -0.15625 0.515625 -0.234375q0.203125 -0.0625 0.625 -0.109375q0.859375 -0.109375 1.25 -0.25q0.015625 -0.140625 0.015625 -0.171875q0 -0.4375 -0.203125 -0.609375q-0.265625 -0.234375 -0.796875 -0.234375q-0.5 0 -0.734375 0.171875q-0.234375 0.171875 -0.359375 0.609375l-0.6875 -0.09375q0.09375 -0.4375 0.3125 -0.703125q0.21875 -0.28125 0.625 -0.421875q0.40625 -0.15625 0.9375 -0.15625q0.53125 0 0.859375 0.125q0.34375 0.125 0.5 0.328125q0.15625 0.1875 0.21875 0.46875q0.03125 0.1875 0.03125 0.65625l0 0.9375q0 0.96875 0.046875 1.234375q0.046875 0.265625 0.171875 0.5l-0.734375 0q-0.109375 -0.21875 -0.140625 -0.515625zm-0.0625 -1.5625q-0.375 0.15625 -1.140625 0.265625q-0.4375 0.0625 -0.625 0.140625q-0.171875 0.078125 -0.265625 0.234375q-0.09375 0.140625 -0.09375 0.328125q0 0.28125 0.203125 0.46875q0.21875 0.1875 0.625 0.1875q0.40625 0 0.71875 -0.171875q0.328125 -0.1875 0.46875 -0.5q0.109375 -0.234375 0.109375 -0.703125l0 -0.25zm1.7929688 2.078125l0 -5.734375l0.703125 0l0 5.734375l-0.703125 0zm1.7617188 1.59375l-0.078125 -0.65625q0.234375 0.0625 0.40625 0.0625q0.234375 0 0.375 -0.078125q0.140625 -0.078125 0.21875 -0.21875q0.078125 -0.109375 0.21875 -0.515625q0.015625 -0.0625 0.0625 -0.171875l-1.578125 -4.171875l0.765625 0l0.859375 2.40625q0.171875 0.453125 0.296875 0.96875q0.125 -0.484375 0.296875 -0.953125l0.890625 -2.421875l0.703125 0l-1.578125 4.234375q-0.265625 0.671875 -0.40625 0.9375q-0.1875 0.34375 -0.4375 0.5q-0.234375 0.171875 -0.5625 0.171875q-0.203125 0 -0.453125 -0.09375zm3.75 -2.828125l0.6875 -0.109375q0.0625 0.40625 0.328125 0.640625q0.265625 0.21875 0.75 0.21875q0.484375 0 0.71875 -0.1875q0.234375 -0.203125 0.234375 -0.46875q0 -0.25 -0.203125 -0.375q-0.140625 -0.09375 -0.71875 -0.25q-0.78125 -0.1875 -1.078125 -0.328125q-0.296875 -0.140625 -0.453125 -0.390625q-0.15625 -0.265625 -0.15625 -0.5625q0 -0.28125 0.125 -0.515625q0.140625 -0.234375 0.359375 -0.390625q0.15625 -0.125 0.4375 -0.203125q0.28125 -0.09375 0.609375 -0.09375q0.484375 0 0.859375 0.140625q0.375 0.140625 0.546875 0.390625q0.171875 0.234375 0.234375 0.640625l-0.6875 0.09375q-0.046875 -0.328125 -0.265625 -0.5q-0.21875 -0.1875 -0.640625 -0.1875q-0.484375 0 -0.6875 0.171875q-0.203125 0.15625 -0.203125 0.375q0 0.125 0.078125 0.234375q0.09375 0.125 0.28125 0.1875q0.09375 0.046875 0.609375 0.1875q0.75 0.203125 1.046875 0.328125q0.296875 0.125 0.453125 0.375q0.171875 0.234375 0.171875 0.59375q0 0.34375 -0.203125 0.65625q-0.203125 0.3125 -0.59375 0.484375q-0.375 0.171875 -0.875 0.171875q-0.796875 0 -1.234375 -0.328125q-0.421875 -0.34375 -0.53125 -1.0zm4.28125 -3.6875l0 -0.8125l0.703125 0l0 0.8125l-0.703125 0zm0 4.921875l0 -4.15625l0.703125 0l0 4.15625l-0.703125 0zm1.4960938 -1.234375l0.6875 -0.109375q0.0625 0.40625 0.328125 0.640625q0.265625 0.21875 0.75 0.21875q0.484375 0 0.71875 -0.1875q0.234375 -0.203125 0.234375 -0.46875q0 -0.25 -0.203125 -0.375q-0.140625 -0.09375 -0.71875 -0.25q-0.78125 -0.1875 -1.078125 -0.328125q-0.296875 -0.140625 -0.453125 -0.390625q-0.15625 -0.265625 -0.15625 -0.5625q0 -0.28125 0.125 -0.515625q0.140625 -0.234375 0.359375 -0.390625q0.15625 -0.125 0.4375 -0.203125q0.28125 -0.09375 0.609375 -0.09375q0.484375 0 0.859375 0.140625q0.375 0.140625 0.546875 0.390625q0.171875 0.234375 0.234375 0.640625l-0.6875 0.09375q-0.046875 -0.328125 -0.265625 -0.5q-0.21875 -0.1875 -0.640625 -0.1875q-0.484375 0 -0.6875 0.171875q-0.203125 0.15625 -0.203125 0.375q0 0.125 0.078125 0.234375q0.09375 0.125 0.28125 0.1875q0.09375 0.046875 0.609375 0.1875q0.75 0.203125 1.046875 0.328125q0.296875 0.125 0.453125 0.375q0.171875 0.234375 0.171875 0.59375q0 0.34375 -0.203125 0.65625q-0.203125 0.3125 -0.59375 0.484375q-0.375 0.171875 -0.875 0.171875q-0.796875 0 -1.234375 -0.328125q-0.421875 -0.34375 -0.53125 -1.0zm6.5039062 -3.6875l0 -0.8125l0.703125 0l0 0.8125l-0.703125 0zm0 4.921875l0 -4.15625l0.703125 0l0 4.15625l-0.703125 0zm1.4960938 -1.234375l0.6875 -0.109375q0.0625 0.40625 0.328125 0.640625q0.265625 0.21875 0.75 0.21875q0.484375 0 0.71875 -0.1875q0.234375 -0.203125 0.234375 -0.46875q0 -0.25 -0.203125 -0.375q-0.140625 -0.09375 -0.71875 -0.25q-0.78125 -0.1875 -1.078125 -0.328125q-0.296875 -0.140625 -0.453125 -0.390625q-0.15625 -0.265625 -0.15625 -0.5625q0 -0.28125 0.125 -0.515625q0.140625 -0.234375 0.359375 -0.390625q0.15625 -0.125 0.4375 -0.203125q0.28125 -0.09375 0.609375 -0.09375q0.484375 0 0.859375 0.140625q0.375 0.140625 0.546875 0.390625q0.171875 0.234375 0.234375 0.640625l-0.6875 0.09375q-0.046875 -0.328125 -0.265625 -0.5q-0.21875 -0.1875 -0.640625 -0.1875q-0.484375 0 -0.6875 0.171875q-0.203125 0.15625 -0.203125 0.375q0 0.125 0.078125 0.234375q0.09375 0.125 0.28125 0.1875q0.09375 0.046875 0.609375 0.1875q0.75 0.203125 1.046875 0.328125q0.296875 0.125 0.453125 0.375q0.171875 0.234375 0.171875 0.59375q0 0.34375 -0.203125 0.65625q-0.203125 0.3125 -0.59375 0.484375q-0.375 0.171875 -0.875 0.171875q-0.796875 0 -1.234375 -0.328125q-0.421875 -0.34375 -0.53125 -1.0zm7.1445312 1.234375l-0.640625 0l0 -5.734375l0.703125 0l0 2.046875q0.4375 -0.5625 1.125 -0.5625q0.390625 0 0.734375 0.15625q0.34375 0.15625 0.5625 0.4375q0.21875 0.28125 0.34375 0.671875q0.125 0.390625 0.125 0.84375q0 1.0625 -0.53125 1.65625q-0.53125 0.578125 -1.265625 0.578125q-0.734375 0 -1.15625 -0.609375l0 0.515625zm0 -2.109375q0 0.75 0.203125 1.078125q0.328125 0.546875 0.890625 0.546875q0.46875 0 0.796875 -0.390625q0.34375 -0.40625 0.34375 -1.203125q0 -0.8125 -0.328125 -1.203125q-0.3125 -0.390625 -0.78125 -0.390625q-0.453125 0 -0.796875 0.40625q-0.328125 0.40625 -0.328125 1.15625zm6.5117188 1.59375q-0.390625 0.328125 -0.75 0.46875q-0.359375 0.140625 -0.78125 0.140625q-0.671875 0 -1.046875 -0.328125q-0.359375 -0.34375 -0.359375 -0.859375q0 -0.3125 0.125 -0.5625q0.140625 -0.25 0.359375 -0.390625q0.234375 -0.15625 0.515625 -0.234375q0.203125 -0.0625 0.625 -0.109375q0.859375 -0.109375 1.25 -0.25q0.015625 -0.140625 0.015625 -0.171875q0 -0.4375 -0.203125 -0.609375q-0.265625 -0.234375 -0.796875 -0.234375q-0.5 0 -0.734375 0.171875q-0.234375 0.171875 -0.359375 0.609375l-0.6875 -0.09375q0.09375 -0.4375 0.3125 -0.703125q0.21875 -0.28125 0.625 -0.421875q0.40625 -0.15625 0.9375 -0.15625q0.53125 0 0.859375 0.125q0.34375 0.125 0.5 0.328125q0.15625 0.1875 0.21875 0.46875q0.03125 0.1875 0.03125 0.65625l0 0.9375q0 0.96875 0.046875 1.234375q0.046875 0.265625 0.171875 0.5l-0.734375 0q-0.109375 -0.21875 -0.140625 -0.515625zm-0.0625 -1.5625q-0.375 0.15625 -1.140625 0.265625q-0.4375 0.0625 -0.625 0.140625q-0.171875 0.078125 -0.265625 0.234375q-0.09375 0.140625 -0.09375 0.328125q0 0.28125 0.203125 0.46875q0.21875 0.1875 0.625 0.1875q0.40625 0 0.71875 -0.171875q0.328125 -0.1875 0.46875 -0.5q0.109375 -0.234375 0.109375 -0.703125l0 -0.25zm1.5273438 0.84375l0.6875 -0.109375q0.0625 0.40625 0.328125 0.640625q0.265625 0.21875 0.75 0.21875q0.484375 0 0.71875 -0.1875q0.234375 -0.203125 0.234375 -0.46875q0 -0.25 -0.203125 -0.375q-0.140625 -0.09375 -0.71875 -0.25q-0.78125 -0.1875 -1.078125 -0.328125q-0.296875 -0.140625 -0.453125 -0.390625q-0.15625 -0.265625 -0.15625 -0.5625q0 -0.28125 0.125 -0.515625q0.140625 -0.234375 0.359375 -0.390625q0.15625 -0.125 0.4375 -0.203125q0.28125 -0.09375 0.609375 -0.09375q0.484375 0 0.859375 0.140625q0.375 0.140625 0.546875 0.390625q0.171875 0.234375 0.234375 0.640625l-0.6875 0.09375q-0.046875 -0.328125 -0.265625 -0.5q-0.21875 -0.1875 -0.640625 -0.1875q-0.484375 0 -0.6875 0.171875q-0.203125 0.15625 -0.203125 0.375q0 0.125 0.078125 0.234375q0.09375 0.125 0.28125 0.1875q0.09375 0.046875 0.609375 0.1875q0.75 0.203125 1.046875 0.328125q0.296875 0.125 0.453125 0.375q0.171875 0.234375 0.171875 0.59375q0 0.34375 -0.203125 0.65625q-0.203125 0.3125 -0.59375 0.484375q-0.375 0.171875 -0.875 0.171875q-0.796875 0 -1.234375 -0.328125q-0.421875 -0.34375 -0.53125 -1.0zm7.125 -0.109375l0.71875 0.09375q-0.171875 0.640625 -0.640625 1.0q-0.453125 0.34375 -1.1875 0.34375q-0.90625 0 -1.4375 -0.5625q-0.53125 -0.5625 -0.53125 -1.578125q0 -1.046875 0.53125 -1.625q0.546875 -0.578125 1.40625 -0.578125q0.828125 0 1.359375 0.578125q0.53125 0.5625 0.53125 1.59375q0 0.0625 -0.015625 0.1875l-3.09375 0q0.046875 0.671875 0.390625 1.046875q0.34375 0.359375 0.875 0.359375q0.375 0 0.640625 -0.203125q0.28125 -0.203125 0.453125 -0.65625zm-2.3125 -1.125l2.3125 0q-0.046875 -0.53125 -0.265625 -0.796875q-0.328125 -0.40625 -0.875 -0.40625q-0.484375 0 -0.8125 0.328125q-0.328125 0.328125 -0.359375 0.875zm6.6054688 2.46875l0 -0.53125q-0.390625 0.625 -1.15625 0.625q-0.5 0 -0.921875 -0.265625q-0.40625 -0.28125 -0.640625 -0.765625q-0.21875 -0.5 -0.21875 -1.140625q0 -0.609375 0.203125 -1.109375q0.203125 -0.515625 0.609375 -0.78125q0.421875 -0.28125 0.9375 -0.28125q0.375 0 0.65625 0.171875q0.296875 0.15625 0.484375 0.40625l0 -2.0625l0.703125 0l0 5.734375l-0.65625 0zm-2.21875 -2.078125q0 0.796875 0.328125 1.203125q0.34375 0.390625 0.796875 0.390625q0.46875 0 0.78125 -0.375q0.328125 -0.375 0.328125 -1.15625q0 -0.84375 -0.328125 -1.234375q-0.328125 -0.40625 -0.8125 -0.40625q-0.46875 0 -0.78125 0.390625q-0.3125 0.375 -0.3125 1.1875zm5.9375 0q0 -1.15625 0.640625 -1.703125q0.53125 -0.46875 1.3125 -0.46875q0.84375 0 1.390625 0.5625q0.546875 0.5625 0.546875 1.546875q0 0.8125 -0.25 1.265625q-0.234375 0.453125 -0.703125 0.71875q-0.453125 0.25 -0.984375 0.25q-0.875 0 -1.421875 -0.5625q-0.53125 -0.5625 -0.53125 -1.609375zm0.71875 0q0 0.796875 0.34375 1.203125q0.359375 0.390625 0.890625 0.390625q0.515625 0 0.859375 -0.390625q0.359375 -0.40625 0.359375 -1.21875q0 -0.78125 -0.359375 -1.171875q-0.34375 -0.390625 -0.859375 -0.390625q-0.53125 0 -0.890625 0.390625q-0.34375 0.390625 -0.34375 1.1875zm3.9960938 2.078125l0 -4.15625l0.625 0l0 0.59375q0.46875 -0.6875 1.328125 -0.6875q0.375 0 0.6875 0.140625q0.3125 0.140625 0.46875 0.359375q0.15625 0.21875 0.21875 0.515625q0.046875 0.1875 0.046875 0.6875l0 2.546875l-0.703125 0l0 -2.53125q0 -0.421875 -0.09375 -0.625q-0.078125 -0.21875 -0.296875 -0.34375q-0.203125 -0.140625 -0.484375 -0.140625q-0.4375 0 -0.765625 0.296875q-0.328125 0.28125 -0.328125 1.078125l0 2.265625l-0.703125 0zm6.75 0l0 -5.734375l0.78125 0l3.0 4.5l0 -4.5l0.734375 0l0 5.734375l-0.78125 0l-3.0 -4.5l0 4.5l-0.734375 0zm5.5273438 -1.84375l0.71875 -0.0625q0.046875 0.4375 0.234375 0.71875q0.1875 0.265625 0.578125 0.4375q0.390625 0.171875 0.875 0.171875q0.4375 0 0.765625 -0.125q0.328125 -0.140625 0.484375 -0.359375q0.171875 -0.234375 0.171875 -0.5q0 -0.265625 -0.15625 -0.46875q-0.15625 -0.203125 -0.515625 -0.328125q-0.234375 -0.09375 -1.03125 -0.28125q-0.78125 -0.1875 -1.09375 -0.359375q-0.40625 -0.21875 -0.609375 -0.53125q-0.203125 -0.328125 -0.203125 -0.71875q0 -0.4375 0.25 -0.8125q0.25 -0.375 0.71875 -0.5625q0.46875 -0.203125 1.046875 -0.203125q0.640625 0 1.125 0.203125q0.484375 0.203125 0.75 0.609375q0.265625 0.390625 0.28125 0.90625l-0.734375 0.046875q-0.046875 -0.546875 -0.390625 -0.8125q-0.34375 -0.28125 -1.0 -0.28125q-0.6875 0 -1.0 0.25q-0.3125 0.25 -0.3125 0.609375q0 0.3125 0.21875 0.5q0.21875 0.203125 1.140625 0.421875q0.921875 0.203125 1.265625 0.359375q0.5 0.234375 0.734375 0.59375q0.25 0.34375 0.25 0.796875q0 0.46875 -0.265625 0.875q-0.265625 0.390625 -0.75 0.625q-0.484375 0.21875 -1.109375 0.21875q-0.765625 0 -1.296875 -0.21875q-0.53125 -0.234375 -0.828125 -0.6875q-0.296875 -0.453125 -0.3125 -1.03125zm8.2734375 -0.40625l0 -0.671875l2.421875 0l0 2.125q-0.546875 0.4375 -1.140625 0.671875q-0.59375 0.21875 -1.21875 0.21875q-0.84375 0 -1.546875 -0.359375q-0.6875 -0.359375 -1.046875 -1.046875q-0.34375 -0.6875 -0.34375 -1.53125q0 -0.828125 0.34375 -1.546875q0.359375 -0.734375 1.015625 -1.078125q0.65625 -0.359375 1.515625 -0.359375q0.625 0 1.125 0.203125q0.5 0.203125 0.78125 0.5625q0.28125 0.359375 0.4375 0.9375l-0.6875 0.1875q-0.125 -0.4375 -0.328125 -0.6875q-0.1875 -0.25 -0.546875 -0.390625q-0.34375 -0.15625 -0.78125 -0.15625q-0.515625 0 -0.90625 0.15625q-0.375 0.15625 -0.609375 0.421875q-0.21875 0.25 -0.359375 0.5625q-0.21875 0.53125 -0.21875 1.140625q0 0.765625 0.265625 1.28125q0.265625 0.515625 0.765625 0.765625q0.515625 0.25 1.078125 0.25q0.484375 0 0.953125 -0.1875q0.46875 -0.1875 0.71875 -0.40625l0 -1.0625l-1.6875 0zm5.6640625 2.25l0 -5.734375l0.703125 0l0 5.734375l-0.703125 0zm1.5273438 -2.078125q0 -1.15625 0.640625 -1.703125q0.53125 -0.46875 1.3125 -0.46875q0.84375 0 1.390625 0.5625q0.546875 0.5625 0.546875 1.546875q0 0.8125 -0.25 1.265625q-0.234375 0.453125 -0.703125 0.71875q-0.453125 0.25 -0.984375 0.25q-0.875 0 -1.421875 -0.5625q-0.53125 -0.5625 -0.53125 -1.609375zm0.71875 0q0 0.796875 0.34375 1.203125q0.359375 0.390625 0.890625 0.390625q0.515625 0 0.859375 -0.390625q0.359375 -0.40625 0.359375 -1.21875q0 -0.78125 -0.359375 -1.171875q-0.34375 -0.390625 -0.859375 -0.390625q-0.53125 0 -0.890625 0.390625q-0.34375 0.390625 -0.34375 1.1875zm3.8710938 2.421875l0.671875 0.109375q0.046875 0.3125 0.25 0.453125q0.25 0.203125 0.703125 0.203125q0.5 0 0.765625 -0.203125q0.265625 -0.1875 0.359375 -0.546875q0.046875 -0.21875 0.046875 -0.90625q-0.46875 0.546875 -1.15625 0.546875q-0.84375 0 -1.3125 -0.609375q-0.46875 -0.625 -0.46875 -1.484375q0 -0.59375 0.203125 -1.09375q0.21875 -0.515625 0.625 -0.78125q0.40625 -0.28125 0.96875 -0.28125q0.734375 0 1.203125 0.59375l0 -0.5l0.65625 0l0 3.59375q0 0.96875 -0.203125 1.375q-0.203125 0.40625 -0.625 0.640625q-0.421875 0.234375 -1.046875 0.234375q-0.75 0 -1.203125 -0.34375q-0.453125 -0.328125 -0.4375 -1.0zm0.578125 -2.5q0 0.828125 0.3125 1.203125q0.328125 0.375 0.828125 0.375q0.484375 0 0.8125 -0.375q0.328125 -0.375 0.328125 -1.171875q0 -0.765625 -0.34375 -1.140625q-0.34375 -0.390625 -0.8125 -0.390625q-0.46875 0 -0.796875 0.375q-0.328125 0.375 -0.328125 1.125zm3.7148438 0.921875l0.6875 -0.109375q0.0625 0.40625 0.328125 0.640625q0.265625 0.21875 0.75 0.21875q0.484375 0 0.71875 -0.1875q0.234375 -0.203125 0.234375 -0.46875q0 -0.25 -0.203125 -0.375q-0.140625 -0.09375 -0.71875 -0.25q-0.78125 -0.1875 -1.078125 -0.328125q-0.296875 -0.140625 -0.453125 -0.390625q-0.15625 -0.265625 -0.15625 -0.5625q0 -0.28125 0.125 -0.515625q0.140625 -0.234375 0.359375 -0.390625q0.15625 -0.125 0.4375 -0.203125q0.28125 -0.09375 0.609375 -0.09375q0.484375 0 0.859375 0.140625q0.375 0.140625 0.546875 0.390625q0.171875 0.234375 0.234375 0.640625l-0.6875 0.09375q-0.046875 -0.328125 -0.265625 -0.5q-0.21875 -0.1875 -0.640625 -0.1875q-0.484375 0 -0.6875 0.171875q-0.203125 0.15625 -0.203125 0.375q0 0.125 0.078125 0.234375q0.09375 0.125 0.28125 0.1875q0.09375 0.046875 0.609375 0.1875q0.75 0.203125 1.046875 0.328125q0.296875 0.125 0.453125 0.375q0.171875 0.234375 0.171875 0.59375q0 0.34375 -0.203125 0.65625q-0.203125 0.3125 -0.59375 0.484375q-0.375 0.171875 -0.875 0.171875q-0.796875 0 -1.234375 -0.328125q-0.421875 -0.34375 -0.53125 -1.0zm6.5039062 -3.6875l0 -0.8125l0.703125 0l0 0.8125l-0.703125 0zm0 4.921875l0 -4.15625l0.703125 0l0 4.15625l-0.703125 0zm1.7773438 0l0 -4.15625l0.625 0l0 0.59375q0.46875 -0.6875 1.328125 -0.6875q0.375 0 0.6875 0.140625q0.3125 0.140625 0.46875 0.359375q0.15625 0.21875 0.21875 0.515625q0.046875 0.1875 0.046875 0.6875l0 2.546875l-0.703125 0l0 -2.53125q0 -0.421875 -0.09375 -0.625q-0.078125 -0.21875 -0.296875 -0.34375q-0.203125 -0.140625 -0.484375 -0.140625q-0.4375 0 -0.765625 0.296875q-0.328125 0.28125 -0.328125 1.078125l0 2.265625l-0.703125 0zm5.6835938 0l2.203125 -5.734375l0.8125 0l2.34375 5.734375l-0.859375 0l-0.671875 -1.734375l-2.390625 0l-0.625 1.734375l-0.8125 0zm1.65625 -2.359375l1.9375 0l-0.59375 -1.578125q-0.265625 -0.71875 -0.40625 -1.1875q-0.109375 0.546875 -0.3125 1.09375l-0.625 1.671875zm3.8515625 2.359375l0 -0.578125l2.640625 -3.03125q-0.453125 0.03125 -0.796875 0.03125l-1.6875 0l0 -0.578125l3.390625 0l0 0.46875l-2.25 2.640625l-0.421875 0.46875q0.46875 -0.03125 0.875 -0.03125l1.921875 0l0 0.609375l-3.671875 0zm7.09375 0l0 -0.609375q-0.484375 0.703125 -1.3125 0.703125q-0.375 0 -0.703125 -0.140625q-0.3125 -0.140625 -0.46875 -0.34375q-0.140625 -0.21875 -0.203125 -0.53125q-0.046875 -0.203125 -0.046875 -0.65625l0 -2.578125l0.703125 0l0 2.3125q0 0.546875 0.046875 0.734375q0.0625 0.28125 0.265625 0.4375q0.21875 0.15625 0.546875 0.15625q0.3125 0 0.578125 -0.15625q0.28125 -0.171875 0.390625 -0.4375q0.125 -0.28125 0.125 -0.8125l0 -2.234375l0.703125 0l0 4.15625l-0.625 0zm1.7148438 0l0 -4.15625l0.640625 0l0 0.640625q0.234375 -0.453125 0.4375 -0.59375q0.21875 -0.140625 0.453125 -0.140625q0.359375 0 0.734375 0.234375l-0.25 0.65625q-0.25 -0.15625 -0.515625 -0.15625q-0.234375 0 -0.421875 0.140625q-0.171875 0.140625 -0.25 0.375q-0.125 0.375 -0.125 0.828125l0 2.171875l-0.703125 0zm5.5234375 -1.34375l0.71875 0.09375q-0.171875 0.640625 -0.640625 1.0q-0.453125 0.34375 -1.1875 0.34375q-0.90625 0 -1.4375 -0.5625q-0.53125 -0.5625 -0.53125 -1.578125q0 -1.046875 0.53125 -1.625q0.546875 -0.578125 1.40625 -0.578125q0.828125 0 1.359375 0.578125q0.53125 0.5625 0.53125 1.59375q0 0.0625 -0.015625 0.1875l-3.09375 0q0.046875 0.671875 0.390625 1.046875q0.34375 0.359375 0.875 0.359375q0.375 0 0.640625 -0.203125q0.28125 -0.203125 0.453125 -0.65625zm-2.3125 -1.125l2.3125 0q-0.046875 -0.53125 -0.265625 -0.796875q-0.328125 -0.40625 -0.875 -0.40625q-0.484375 0 -0.8125 0.328125q-0.328125 0.328125 -0.359375 0.875zm6.140625 4.0625l0 -5.75l0.640625 0l0 0.546875q0.21875 -0.3125 0.5 -0.46875q0.296875 -0.171875 0.703125 -0.171875q0.53125 0 0.9375 0.28125q0.40625 0.265625 0.609375 0.765625q0.203125 0.5 0.203125 1.09375q0 0.640625 -0.234375 1.15625q-0.21875 0.5 -0.65625 0.78125q-0.4375 0.265625 -0.90625 0.265625q-0.359375 0 -0.640625 -0.140625q-0.28125 -0.15625 -0.453125 -0.390625l0 2.03125l-0.703125 0zm0.640625 -3.640625q0 0.796875 0.3125 1.1875q0.328125 0.375 0.796875 0.375q0.46875 0 0.796875 -0.390625q0.328125 -0.40625 0.328125 -1.234375q0 -0.796875 -0.328125 -1.1875q-0.3125 -0.390625 -0.765625 -0.390625q-0.453125 0 -0.796875 0.421875q-0.34375 0.40625 -0.34375 1.21875zm3.7929688 2.046875l0 -5.734375l0.703125 0l0 5.734375l-0.703125 0zm4.4960938 -0.515625q-0.390625 0.328125 -0.75 0.46875q-0.359375 0.140625 -0.78125 0.140625q-0.671875 0 -1.046875 -0.328125q-0.359375 -0.34375 -0.359375 -0.859375q0 -0.3125 0.125 -0.5625q0.140625 -0.25 0.359375 -0.390625q0.234375 -0.15625 0.515625 -0.234375q0.203125 -0.0625 0.625 -0.109375q0.859375 -0.109375 1.25 -0.25q0.015625 -0.140625 0.015625 -0.171875q0 -0.4375 -0.203125 -0.609375q-0.265625 -0.234375 -0.796875 -0.234375q-0.5 0 -0.734375 0.171875q-0.234375 0.171875 -0.359375 0.609375l-0.6875 -0.09375q0.09375 -0.4375 0.3125 -0.703125q0.21875 -0.28125 0.625 -0.421875q0.40625 -0.15625 0.9375 -0.15625q0.53125 0 0.859375 0.125q0.34375 0.125 0.5 0.328125q0.15625 0.1875 0.21875 0.46875q0.03125 0.1875 0.03125 0.65625l0 0.9375q0 0.96875 0.046875 1.234375q0.046875 0.265625 0.171875 0.5l-0.734375 0q-0.109375 -0.21875 -0.140625 -0.515625zm-0.0625 -1.5625q-0.375 0.15625 -1.140625 0.265625q-0.4375 0.0625 -0.625 0.140625q-0.171875 0.078125 -0.265625 0.234375q-0.09375 0.140625 -0.09375 0.328125q0 0.28125 0.203125 0.46875q0.21875 0.1875 0.625 0.1875q0.40625 0 0.71875 -0.171875q0.328125 -0.1875 0.46875 -0.5q0.109375 -0.234375 0.109375 -0.703125l0 -0.25zm3.3398438 1.453125l0.109375 0.609375q-0.296875 0.078125 -0.53125 0.078125q-0.390625 0 -0.609375 -0.125q-0.203125 -0.125 -0.296875 -0.3125q-0.078125 -0.203125 -0.078125 -0.84375l0 -2.390625l-0.515625 0l0 -0.546875l0.515625 0l0 -1.015625l0.703125 -0.421875l0 1.4375l0.703125 0l0 0.546875l-0.703125 0l0 2.4375q0 0.296875 0.03125 0.390625q0.046875 0.078125 0.125 0.125q0.078125 0.046875 0.234375 0.046875q0.125 0 0.3125 -0.015625zm0.86328125 0.625l0 -3.609375l-0.625 0l0 -0.546875l0.625 0l0 -0.4375q0 -0.421875 0.0625 -0.625q0.109375 -0.265625 0.359375 -0.4375q0.265625 -0.171875 0.71875 -0.171875q0.296875 0 0.65625 0.078125l-0.109375 0.609375q-0.21875 -0.046875 -0.40625 -0.046875q-0.328125 0 -0.46875 0.140625q-0.125 0.140625 -0.125 0.515625l0 0.375l0.8125 0l0 0.546875l-0.8125 0l0 3.609375l-0.6875 0zm1.7851562 -2.078125q0 -1.15625 0.640625 -1.703125q0.53125 -0.46875 1.3125 -0.46875q0.84375 0 1.390625 0.5625q0.546875 0.5625 0.546875 1.546875q0 0.8125 -0.25 1.265625q-0.234375 0.453125 -0.703125 0.71875q-0.453125 0.25 -0.984375 0.25q-0.875 0 -1.421875 -0.5625q-0.53125 -0.5625 -0.53125 -1.609375zm0.71875 0q0 0.796875 0.34375 1.203125q0.359375 0.390625 0.890625 0.390625q0.515625 0 0.859375 -0.390625q0.359375 -0.40625 0.359375 -1.21875q0 -0.78125 -0.359375 -1.171875q-0.34375 -0.390625 -0.859375 -0.390625q-0.53125 0 -0.890625 0.390625q-0.34375 0.390625 -0.34375 1.1875zm3.9804688 2.078125l0 -4.15625l0.640625 0l0 0.640625q0.234375 -0.453125 0.4375 -0.59375q0.21875 -0.140625 0.453125 -0.140625q0.359375 0 0.734375 0.234375l-0.25 0.65625q-0.25 -0.15625 -0.515625 -0.15625q-0.234375 0 -0.421875 0.140625q-0.171875 0.140625 -0.25 0.375q-0.125 0.375 -0.125 0.828125l0 2.171875l-0.703125 0zm2.6796875 0l0 -4.15625l0.625 0l0 0.59375q0.203125 -0.3125 0.515625 -0.5q0.328125 -0.1875 0.75 -0.1875q0.453125 0 0.75 0.203125q0.296875 0.1875 0.421875 0.53125q0.484375 -0.734375 1.28125 -0.734375q0.609375 0 0.9375 0.34375q0.34375 0.34375 0.34375 1.0625l0 2.84375l-0.703125 0l0 -2.609375q0 -0.421875 -0.078125 -0.609375q-0.0625 -0.1875 -0.25 -0.296875q-0.171875 -0.125 -0.40625 -0.125q-0.4375 0 -0.734375 0.296875q-0.28125 0.296875 -0.28125 0.9375l0 2.40625l-0.703125 0l0 -2.703125q0 -0.46875 -0.171875 -0.703125q-0.171875 -0.234375 -0.5625 -0.234375q-0.296875 0 -0.5625 0.15625q-0.25 0.15625 -0.359375 0.46875q-0.109375 0.296875 -0.109375 0.859375l0 2.15625l-0.703125 0zm11.589844 -0.515625q-0.390625 0.328125 -0.75 0.46875q-0.359375 0.140625 -0.78125 0.140625q-0.671875 0 -1.046875 -0.328125q-0.359375 -0.34375 -0.359375 -0.859375q0 -0.3125 0.125 -0.5625q0.140625 -0.25 0.359375 -0.390625q0.234375 -0.15625 0.515625 -0.234375q0.203125 -0.0625 0.625 -0.109375q0.859375 -0.109375 1.25 -0.25q0.015625 -0.140625 0.015625 -0.171875q0 -0.4375 -0.203125 -0.609375q-0.265625 -0.234375 -0.796875 -0.234375q-0.5 0 -0.734375 0.171875q-0.234375 0.171875 -0.359375 0.609375l-0.6875 -0.09375q0.09375 -0.4375 0.3125 -0.703125q0.21875 -0.28125 0.625 -0.421875q0.40625 -0.15625 0.9375 -0.15625q0.53125 0 0.859375 0.125q0.34375 0.125 0.5 0.328125q0.15625 0.1875 0.21875 0.46875q0.03125 0.1875 0.03125 0.65625l0 0.9375q0 0.96875 0.046875 1.234375q0.046875 0.265625 0.171875 0.5l-0.734375 0q-0.109375 -0.21875 -0.140625 -0.515625zm-0.0625 -1.5625q-0.375 0.15625 -1.140625 0.265625q-0.4375 0.0625 -0.625 0.140625q-0.171875 0.078125 -0.265625 0.234375q-0.09375 0.140625 -0.09375 0.328125q0 0.28125 0.203125 0.46875q0.21875 0.1875 0.625 0.1875q0.40625 0 0.71875 -0.171875q0.328125 -0.1875 0.46875 -0.5q0.109375 -0.234375 0.109375 -0.703125l0 -0.25zm1.8085938 2.078125l0 -4.15625l0.625 0l0 0.59375q0.46875 -0.6875 1.328125 -0.6875q0.375 0 0.6875 0.140625q0.3125 0.140625 0.46875 0.359375q0.15625 0.21875 0.21875 0.515625q0.046875 0.1875 0.046875 0.6875l0 2.546875l-0.703125 0l0 -2.53125q0 -0.421875 -0.09375 -0.625q-0.078125 -0.21875 -0.296875 -0.34375q-0.203125 -0.140625 -0.484375 -0.140625q-0.4375 0 -0.765625 0.296875q-0.328125 0.28125 -0.328125 1.078125l0 2.265625l-0.703125 0zm7.1523438 -0.515625q-0.390625 0.328125 -0.75 0.46875q-0.359375 0.140625 -0.78125 0.140625q-0.671875 0 -1.046875 -0.328125q-0.359375 -0.34375 -0.359375 -0.859375q0 -0.3125 0.125 -0.5625q0.140625 -0.25 0.359375 -0.390625q0.234375 -0.15625 0.515625 -0.234375q0.203125 -0.0625 0.625 -0.109375q0.859375 -0.109375 1.25 -0.25q0.015625 -0.140625 0.015625 -0.171875q0 -0.4375 -0.203125 -0.609375q-0.265625 -0.234375 -0.796875 -0.234375q-0.5 0 -0.734375 0.171875q-0.234375 0.171875 -0.359375 0.609375l-0.6875 -0.09375q0.09375 -0.4375 0.3125 -0.703125q0.21875 -0.28125 0.625 -0.421875q0.40625 -0.15625 0.9375 -0.15625q0.53125 0 0.859375 0.125q0.34375 0.125 0.5 0.328125q0.15625 0.1875 0.21875 0.46875q0.03125 0.1875 0.03125 0.65625l0 0.9375q0 0.96875 0.046875 1.234375q0.046875 0.265625 0.171875 0.5l-0.734375 0q-0.109375 -0.21875 -0.140625 -0.515625zm-0.0625 -1.5625q-0.375 0.15625 -1.140625 0.265625q-0.4375 0.0625 -0.625 0.140625q-0.171875 0.078125 -0.265625 0.234375q-0.09375 0.140625 -0.09375 0.328125q0 0.28125 0.203125 0.46875q0.21875 0.1875 0.625 0.1875q0.40625 0 0.71875 -0.171875q0.328125 -0.1875 0.46875 -0.5q0.109375 -0.234375 0.109375 -0.703125l0 -0.25zm1.7929688 2.078125l0 -5.734375l0.703125 0l0 5.734375l-0.703125 0zm1.7617188 1.59375l-0.078125 -0.65625q0.234375 0.0625 0.40625 0.0625q0.234375 0 0.375 -0.078125q0.140625 -0.078125 0.21875 -0.21875q0.078125 -0.109375 0.21875 -0.515625q0.015625 -0.0625 0.0625 -0.171875l-1.578125 -4.171875l0.765625 0l0.859375 2.40625q0.171875 0.453125 0.296875 0.96875q0.125 -0.484375 0.296875 -0.953125l0.890625 -2.421875l0.703125 0l-1.578125 4.234375q-0.265625 0.671875 -0.40625 0.9375q-0.1875 0.34375 -0.4375 0.5q-0.234375 0.171875 -0.5625 0.171875q-0.203125 0 -0.453125 -0.09375zm3.65625 -1.59375l0 -0.578125l2.640625 -3.03125q-0.453125 0.03125 -0.796875 0.03125l-1.6875 0l0 -0.578125l3.390625 0l0 0.46875l-2.25 2.640625l-0.421875 0.46875q0.46875 -0.03125 0.875 -0.03125l1.921875 0l0 0.609375l-3.671875 0zm7.21875 -1.34375l0.71875 0.09375q-0.171875 0.640625 -0.640625 1.0q-0.453125 0.34375 -1.1875 0.34375q-0.90625 0 -1.4375 -0.5625q-0.53125 -0.5625 -0.53125 -1.578125q0 -1.046875 0.53125 -1.625q0.546875 -0.578125 1.40625 -0.578125q0.828125 0 1.359375 0.578125q0.53125 0.5625 0.53125 1.59375q0 0.0625 -0.015625 0.1875l-3.09375 0q0.046875 0.671875 0.390625 1.046875q0.34375 0.359375 0.875 0.359375q0.375 0 0.640625 -0.203125q0.28125 -0.203125 0.453125 -0.65625zm-2.3125 -1.125l2.3125 0q-0.046875 -0.53125 -0.265625 -0.796875q-0.328125 -0.40625 -0.875 -0.40625q-0.484375 0 -0.8125 0.328125q-0.328125 0.328125 -0.359375 0.875zm6.6054688 2.46875l0 -0.53125q-0.390625 0.625 -1.15625 0.625q-0.5 0 -0.921875 -0.265625q-0.40625 -0.28125 -0.640625 -0.765625q-0.21875 -0.5 -0.21875 -1.140625q0 -0.609375 0.203125 -1.109375q0.203125 -0.515625 0.609375 -0.78125q0.421875 -0.28125 0.9375 -0.28125q0.375 0 0.65625 0.171875q0.296875 0.15625 0.484375 0.40625l0 -2.0625l0.703125 0l0 5.734375l-0.65625 0zm-2.21875 -2.078125q0 0.796875 0.328125 1.203125q0.34375 0.390625 0.796875 0.390625q0.46875 0 0.78125 -0.375q0.328125 -0.375 0.328125 -1.15625q0 -0.84375 -0.328125 -1.234375q-0.328125 -0.40625 -0.8125 -0.40625q-0.46875 0 -0.78125 0.390625q-0.3125 0.375 -0.3125 1.1875zm6.96875 2.078125l-1.265625 -4.15625l0.71875 0l0.65625 2.40625l0.25 0.890625q0.015625 -0.078125 0.21875 -0.859375l0.65625 -2.4375l0.71875 0l0.625 2.40625l0.203125 0.796875l0.25 -0.796875l0.703125 -2.40625l0.6875 0l-1.296875 4.15625l-0.734375 0l-0.65625 -2.484375l-0.15625 -0.703125l-0.84375 3.1875l-0.734375 0zm5.0117188 -4.921875l0 -0.8125l0.703125 0l0 0.8125l-0.703125 0zm0 4.921875l0 -4.15625l0.703125 0l0 4.15625l-0.703125 0zm3.3085938 -0.625l0.109375 0.609375q-0.296875 0.078125 -0.53125 0.078125q-0.390625 0 -0.609375 -0.125q-0.203125 -0.125 -0.296875 -0.3125q-0.078125 -0.203125 -0.078125 -0.84375l0 -2.390625l-0.515625 0l0 -0.546875l0.515625 0l0 -1.015625l0.703125 -0.421875l0 1.4375l0.703125 0l0 0.546875l-0.703125 0l0 2.4375q0 0.296875 0.03125 0.390625q0.046875 0.078125 0.125 0.125q0.078125 0.046875 0.234375 0.046875q0.125 0 0.3125 -0.015625zm0.69140625 0.625l0 -5.734375l0.703125 0l0 2.0625q0.484375 -0.578125 1.234375 -0.578125q0.46875 0 0.796875 0.1875q0.34375 0.1875 0.484375 0.515625q0.15625 0.3125 0.15625 0.921875l0 2.625l-0.703125 0l0 -2.625q0 -0.53125 -0.234375 -0.765625q-0.21875 -0.25 -0.640625 -0.25q-0.3125 0 -0.59375 0.171875q-0.265625 0.15625 -0.390625 0.4375q-0.109375 0.265625 -0.109375 0.765625l0 2.265625l-0.703125 0zm6.765625 0l0 -5.734375l2.15625 0q0.5625 0 0.875 0.0625q0.421875 0.0625 0.703125 0.265625q0.28125 0.203125 0.453125 0.5625q0.171875 0.34375 0.171875 0.765625q0 0.734375 -0.46875 1.25q-0.453125 0.5 -1.671875 0.5l-1.46875 0l0 2.328125l-0.75 0zm0.75 -3.0l1.484375 0q0.734375 0 1.03125 -0.265625q0.3125 -0.28125 0.3125 -0.78125q0 -0.359375 -0.1875 -0.609375q-0.171875 -0.265625 -0.46875 -0.34375q-0.1875 -0.046875 -0.703125 -0.046875l-1.46875 0l0 2.046875zm4.4609375 4.59375l-0.078125 -0.65625q0.234375 0.0625 0.40625 0.0625q0.234375 0 0.375 -0.078125q0.140625 -0.078125 0.21875 -0.21875q0.078125 -0.109375 0.21875 -0.515625q0.015625 -0.0625 0.0625 -0.171875l-1.578125 -4.171875l0.765625 0l0.859375 2.40625q0.171875 0.453125 0.296875 0.96875q0.125 -0.484375 0.296875 -0.953125l0.890625 -2.421875l0.703125 0l-1.578125 4.234375q-0.265625 0.671875 -0.40625 0.9375q-0.1875 0.34375 -0.4375 0.5q-0.234375 0.171875 -0.5625 0.171875q-0.203125 0 -0.453125 -0.09375zm5.5625 -2.21875l0.109375 0.609375q-0.296875 0.078125 -0.53125 0.078125q-0.390625 0 -0.609375 -0.125q-0.203125 -0.125 -0.296875 -0.3125q-0.078125 -0.203125 -0.078125 -0.84375l0 -2.390625l-0.515625 0l0 -0.546875l0.515625 0l0 -1.015625l0.703125 -0.421875l0 1.4375l0.703125 0l0 0.546875l-0.703125 0l0 2.4375q0 0.296875 0.03125 0.390625q0.046875 0.078125 0.125 0.125q0.078125 0.046875 0.234375 0.046875q0.125 0 0.3125 -0.015625zm0.69140625 0.625l0 -5.734375l0.703125 0l0 2.0625q0.484375 -0.578125 1.234375 -0.578125q0.46875 0 0.796875 0.1875q0.34375 0.1875 0.484375 0.515625q0.15625 0.3125 0.15625 0.921875l0 2.625l-0.703125 0l0 -2.625q0 -0.53125 -0.234375 -0.765625q-0.21875 -0.25 -0.640625 -0.25q-0.3125 0 -0.59375 0.171875q-0.265625 0.15625 -0.390625 0.4375q-0.109375 0.265625 -0.109375 0.765625l0 2.265625l-0.703125 0zm4.1835938 -2.078125q0 -1.15625 0.640625 -1.703125q0.53125 -0.46875 1.3125 -0.46875q0.84375 0 1.390625 0.5625q0.546875 0.5625 0.546875 1.546875q0 0.8125 -0.25 1.265625q-0.234375 0.453125 -0.703125 0.71875q-0.453125 0.25 -0.984375 0.25q-0.875 0 -1.421875 -0.5625q-0.53125 -0.5625 -0.53125 -1.609375zm0.71875 0q0 0.796875 0.34375 1.203125q0.359375 0.390625 0.890625 0.390625q0.515625 0 0.859375 -0.390625q0.359375 -0.40625 0.359375 -1.21875q0 -0.78125 -0.359375 -1.171875q-0.34375 -0.390625 -0.859375 -0.390625q-0.53125 0 -0.890625 0.390625q-0.34375 0.390625 -0.34375 1.1875zm3.9960938 2.078125l0 -4.15625l0.625 0l0 0.59375q0.46875 -0.6875 1.328125 -0.6875q0.375 0 0.6875 0.140625q0.3125 0.140625 0.46875 0.359375q0.15625 0.21875 0.21875 0.515625q0.046875 0.1875 0.046875 0.6875l0 2.546875l-0.703125 0l0 -2.53125q0 -0.421875 -0.09375 -0.625q-0.078125 -0.21875 -0.296875 -0.34375q-0.203125 -0.140625 -0.484375 -0.140625q-0.4375 0 -0.765625 0.296875q-0.328125 0.28125 -0.328125 1.078125l0 2.265625l-0.703125 0zm6.65625 0l0 -5.734375l0.703125 0l0 5.734375l-0.703125 0zm1.7929688 -4.921875l0 -0.8125l0.703125 0l0 0.8125l-0.703125 0zm0 4.921875l0 -4.15625l0.703125 0l0 4.15625l-0.703125 0zm2.4179688 0l-0.640625 0l0 -5.734375l0.703125 0l0 2.046875q0.4375 -0.5625 1.125 -0.5625q0.390625 0 0.734375 0.15625q0.34375 0.15625 0.5625 0.4375q0.21875 0.28125 0.34375 0.671875q0.125 0.390625 0.125 0.84375q0 1.0625 -0.53125 1.65625q-0.53125 0.578125 -1.265625 0.578125q-0.734375 0 -1.15625 -0.609375l0 0.515625zm0 -2.109375q0 0.75 0.203125 1.078125q0.328125 0.546875 0.890625 0.546875q0.46875 0 0.796875 -0.390625q0.34375 -0.40625 0.34375 -1.203125q0 -0.8125 -0.328125 -1.203125q-0.3125 -0.390625 -0.78125 -0.390625q-0.453125 0 -0.796875 0.40625q-0.328125 0.40625 -0.328125 1.15625zm3.7929688 2.109375l0 -4.15625l0.640625 0l0 0.640625q0.234375 -0.453125 0.4375 -0.59375q0.21875 -0.140625 0.453125 -0.140625q0.359375 0 0.734375 0.234375l-0.25 0.65625q-0.25 -0.15625 -0.515625 -0.15625q-0.234375 0 -0.421875 0.140625q-0.171875 0.140625 -0.25 0.375q-0.125 0.375 -0.125 0.828125l0 2.171875l-0.703125 0zm5.3828125 -0.515625q-0.390625 0.328125 -0.75 0.46875q-0.359375 0.140625 -0.78125 0.140625q-0.671875 0 -1.046875 -0.328125q-0.359375 -0.34375 -0.359375 -0.859375q0 -0.3125 0.125 -0.5625q0.140625 -0.25 0.359375 -0.390625q0.234375 -0.15625 0.515625 -0.234375q0.203125 -0.0625 0.625 -0.109375q0.859375 -0.109375 1.25 -0.25q0.015625 -0.140625 0.015625 -0.171875q0 -0.4375 -0.203125 -0.609375q-0.265625 -0.234375 -0.796875 -0.234375q-0.5 0 -0.734375 0.171875q-0.234375 0.171875 -0.359375 0.609375l-0.6875 -0.09375q0.09375 -0.4375 0.3125 -0.703125q0.21875 -0.28125 0.625 -0.421875q0.40625 -0.15625 0.9375 -0.15625q0.53125 0 0.859375 0.125q0.34375 0.125 0.5 0.328125q0.15625 0.1875 0.21875 0.46875q0.03125 0.1875 0.03125 0.65625l0 0.9375q0 0.96875 0.046875 1.234375q0.046875 0.265625 0.171875 0.5l-0.734375 0q-0.109375 -0.21875 -0.140625 -0.515625zm-0.0625 -1.5625q-0.375 0.15625 -1.140625 0.265625q-0.4375 0.0625 -0.625 0.140625q-0.171875 0.078125 -0.265625 0.234375q-0.09375 0.140625 -0.09375 0.328125q0 0.28125 0.203125 0.46875q0.21875 0.1875 0.625 0.1875q0.40625 0 0.71875 -0.171875q0.328125 -0.1875 0.46875 -0.5q0.109375 -0.234375 0.109375 -0.703125l0 -0.25zm1.7929688 2.078125l0 -4.15625l0.640625 0l0 0.640625q0.234375 -0.453125 0.4375 -0.59375q0.21875 -0.140625 0.453125 -0.140625q0.359375 0 0.734375 0.234375l-0.25 0.65625q-0.25 -0.15625 -0.515625 -0.15625q-0.234375 0 -0.421875 0.140625q-0.171875 0.140625 -0.25 0.375q-0.125 0.375 -0.125 0.828125l0 2.171875l-0.703125 0zm2.6484375 1.59375l-0.078125 -0.65625q0.234375 0.0625 0.40625 0.0625q0.234375 0 0.375 -0.078125q0.140625 -0.078125 0.21875 -0.21875q0.078125 -0.109375 0.21875 -0.515625q0.015625 -0.0625 0.0625 -0.171875l-1.578125 -4.171875l0.765625 0l0.859375 2.40625q0.171875 0.453125 0.296875 0.96875q0.125 -0.484375 0.296875 -0.953125l0.890625 -2.421875l0.703125 0l-1.578125 4.234375q-0.265625 0.671875 -0.40625 0.9375q-0.1875 0.34375 -0.4375 0.5q-0.234375 0.171875 -0.5625 0.171875q-0.203125 0 -0.453125 -0.09375zm6.3476562 -1.59375l0 -5.734375l2.15625 0q0.5625 0 0.875 0.0625q0.421875 0.0625 0.703125 0.265625q0.28125 0.203125 0.453125 0.5625q0.171875 0.34375 0.171875 0.765625q0 0.734375 -0.46875 1.25q-0.453125 0.5 -1.671875 0.5l-1.46875 0l0 2.328125l-0.75 0zm0.75 -3.0l1.484375 0q0.734375 0 1.03125 -0.265625q0.3125 -0.28125 0.3125 -0.78125q0 -0.359375 -0.1875 -0.609375q-0.171875 -0.265625 -0.46875 -0.34375q-0.1875 -0.046875 -0.703125 -0.046875l-1.46875 0l0 2.046875zm7.1953125 2.484375q-0.390625 0.328125 -0.75 0.46875q-0.359375 0.140625 -0.78125 0.140625q-0.671875 0 -1.046875 -0.328125q-0.359375 -0.34375 -0.359375 -0.859375q0 -0.3125 0.125 -0.5625q0.140625 -0.25 0.359375 -0.390625q0.234375 -0.15625 0.515625 -0.234375q0.203125 -0.0625 0.625 -0.109375q0.859375 -0.109375 1.25 -0.25q0.015625 -0.140625 0.015625 -0.171875q0 -0.4375 -0.203125 -0.609375q-0.265625 -0.234375 -0.796875 -0.234375q-0.5 0 -0.734375 0.171875q-0.234375 0.171875 -0.359375 0.609375l-0.6875 -0.09375q0.09375 -0.4375 0.3125 -0.703125q0.21875 -0.28125 0.625 -0.421875q0.40625 -0.15625 0.9375 -0.15625q0.53125 0 0.859375 0.125q0.34375 0.125 0.5 0.328125q0.15625 0.1875 0.21875 0.46875q0.03125 0.1875 0.03125 0.65625l0 0.9375q0 0.96875 0.046875 1.234375q0.046875 0.265625 0.171875 0.5l-0.734375 0q-0.109375 -0.21875 -0.140625 -0.515625zm-0.0625 -1.5625q-0.375 0.15625 -1.140625 0.265625q-0.4375 0.0625 -0.625 0.140625q-0.171875 0.078125 -0.265625 0.234375q-0.09375 0.140625 -0.09375 0.328125q0 0.28125 0.203125 0.46875q0.21875 0.1875 0.625 0.1875q0.40625 0 0.71875 -0.171875q0.328125 -0.1875 0.46875 -0.5q0.109375 -0.234375 0.109375 -0.703125l0 -0.25zm1.8085938 2.078125l0 -4.15625l0.625 0l0 0.59375q0.46875 -0.6875 1.328125 -0.6875q0.375 0 0.6875 0.140625q0.3125 0.140625 0.46875 0.359375q0.15625 0.21875 0.21875 0.515625q0.046875 0.1875 0.046875 0.6875l0 2.546875l-0.703125 0l0 -2.53125q0 -0.421875 -0.09375 -0.625q-0.078125 -0.21875 -0.296875 -0.34375q-0.203125 -0.140625 -0.484375 -0.140625q-0.4375 0 -0.765625 0.296875q-0.328125 0.28125 -0.328125 1.078125l0 2.265625l-0.703125 0zm7.1367188 0l0 -0.53125q-0.390625 0.625 -1.15625 0.625q-0.5 0 -0.921875 -0.265625q-0.40625 -0.28125 -0.640625 -0.765625q-0.21875 -0.5 -0.21875 -1.140625q0 -0.609375 0.203125 -1.109375q0.203125 -0.515625 0.609375 -0.78125q0.421875 -0.28125 0.9375 -0.28125q0.375 0 0.65625 0.171875q0.296875 0.15625 0.484375 0.40625l0 -2.0625l0.703125 0l0 5.734375l-0.65625 0zm-2.21875 -2.078125q0 0.796875 0.328125 1.203125q0.34375 0.390625 0.796875 0.390625q0.46875 0 0.78125 -0.375q0.328125 -0.375 0.328125 -1.15625q0 -0.84375 -0.328125 -1.234375q-0.328125 -0.40625 -0.8125 -0.40625q-0.46875 0 -0.78125 0.390625q-0.3125 0.375 -0.3125 1.1875zm6.6835938 1.5625q-0.390625 0.328125 -0.75 0.46875q-0.359375 0.140625 -0.78125 0.140625q-0.671875 0 -1.046875 -0.328125q-0.359375 -0.34375 -0.359375 -0.859375q0 -0.3125 0.125 -0.5625q0.140625 -0.25 0.359375 -0.390625q0.234375 -0.15625 0.515625 -0.234375q0.203125 -0.0625 0.625 -0.109375q0.859375 -0.109375 1.25 -0.25q0.015625 -0.140625 0.015625 -0.171875q0 -0.4375 -0.203125 -0.609375q-0.265625 -0.234375 -0.796875 -0.234375q-0.5 0 -0.734375 0.171875q-0.234375 0.171875 -0.359375 0.609375l-0.6875 -0.09375q0.09375 -0.4375 0.3125 -0.703125q0.21875 -0.28125 0.625 -0.421875q0.40625 -0.15625 0.9375 -0.15625q0.53125 0 0.859375 0.125q0.34375 0.125 0.5 0.328125q0.15625 0.1875 0.21875 0.46875q0.03125 0.1875 0.03125 0.65625l0 0.9375q0 0.96875 0.046875 1.234375q0.046875 0.265625 0.171875 0.5l-0.734375 0q-0.109375 -0.21875 -0.140625 -0.515625zm-0.0625 -1.5625q-0.375 0.15625 -1.140625 0.265625q-0.4375 0.0625 -0.625 0.140625q-0.171875 0.078125 -0.265625 0.234375q-0.09375 0.140625 -0.09375 0.328125q0 0.28125 0.203125 0.46875q0.21875 0.1875 0.625 0.1875q0.40625 0 0.71875 -0.171875q0.328125 -0.1875 0.46875 -0.5q0.109375 -0.234375 0.109375 -0.703125l0 -0.25zm1.5273438 0.84375l0.6875 -0.109375q0.0625 0.40625 0.328125 0.640625q0.265625 0.21875 0.75 0.21875q0.484375 0 0.71875 -0.1875q0.234375 -0.203125 0.234375 -0.46875q0 -0.25 -0.203125 -0.375q-0.140625 -0.09375 -0.71875 -0.25q-0.78125 -0.1875 -1.078125 -0.328125q-0.296875 -0.140625 -0.453125 -0.390625q-0.15625 -0.265625 -0.15625 -0.5625q0 -0.28125 0.125 -0.515625q0.140625 -0.234375 0.359375 -0.390625q0.15625 -0.125 0.4375 -0.203125q0.28125 -0.09375 0.609375 -0.09375q0.484375 0 0.859375 0.140625q0.375 0.140625 0.546875 0.390625q0.171875 0.234375 0.234375 0.640625l-0.6875 0.09375q-0.046875 -0.328125 -0.265625 -0.5q-0.21875 -0.1875 -0.640625 -0.1875q-0.484375 0 -0.6875 0.171875q-0.203125 0.15625 -0.203125 0.375q0 0.125 0.078125 0.234375q0.09375 0.125 0.28125 0.1875q0.09375 0.046875 0.609375 0.1875q0.75 0.203125 1.046875 0.328125q0.296875 0.125 0.453125 0.375q0.171875 0.234375 0.171875 0.59375q0 0.34375 -0.203125 0.65625q-0.203125 0.3125 -0.59375 0.484375q-0.375 0.171875 -0.875 0.171875q-0.796875 0 -1.234375 -0.328125q-0.421875 -0.34375 -0.53125 -1.0zm4.46875 1.234375l0 -0.796875l0.796875 0l0 0.796875q0 0.4375 -0.15625 0.703125q-0.15625 0.28125 -0.5 0.4375l-0.1875 -0.3125q0.21875 -0.09375 0.3125 -0.28125q0.109375 -0.1875 0.125 -0.546875l-0.390625 0zm4.2578125 0l0 -4.15625l0.625 0l0 0.59375q0.203125 -0.3125 0.515625 -0.5q0.328125 -0.1875 0.75 -0.1875q0.453125 0 0.75 0.203125q0.296875 0.1875 0.421875 0.53125q0.484375 -0.734375 1.28125 -0.734375q0.609375 0 0.9375 0.34375q0.34375 0.34375 0.34375 1.0625l0 2.84375l-0.703125 0l0 -2.609375q0 -0.421875 -0.078125 -0.609375q-0.0625 -0.1875 -0.25 -0.296875q-0.171875 -0.125 -0.40625 -0.125q-0.4375 0 -0.734375 0.296875q-0.28125 0.296875 -0.28125 0.9375l0 2.40625l-0.703125 0l0 -2.703125q0 -0.46875 -0.171875 -0.703125q-0.171875 -0.234375 -0.5625 -0.234375q-0.296875 0 -0.5625 0.15625q-0.25 0.15625 -0.359375 0.46875q-0.109375 0.296875 -0.109375 0.859375l0 2.15625l-0.703125 0zm9.3671875 -0.515625q-0.390625 0.328125 -0.75 0.46875q-0.359375 0.140625 -0.78125 0.140625q-0.671875 0 -1.046875 -0.328125q-0.359375 -0.34375 -0.359375 -0.859375q0 -0.3125 0.125 -0.5625q0.140625 -0.25 0.359375 -0.390625q0.234375 -0.15625 0.515625 -0.234375q0.203125 -0.0625 0.625 -0.109375q0.859375 -0.109375 1.25 -0.25q0.015625 -0.140625 0.015625 -0.171875q0 -0.4375 -0.203125 -0.609375q-0.265625 -0.234375 -0.796875 -0.234375q-0.5 0 -0.734375 0.171875q-0.234375 0.171875 -0.359375 0.609375l-0.6875 -0.09375q0.09375 -0.4375 0.3125 -0.703125q0.21875 -0.28125 0.625 -0.421875q0.40625 -0.15625 0.9375 -0.15625q0.53125 0 0.859375 0.125q0.34375 0.125 0.5 0.328125q0.15625 0.1875 0.21875 0.46875q0.03125 0.1875 0.03125 0.65625l0 0.9375q0 0.96875 0.046875 1.234375q0.046875 0.265625 0.171875 0.5l-0.734375 0q-0.109375 -0.21875 -0.140625 -0.515625zm-0.0625 -1.5625q-0.375 0.15625 -1.140625 0.265625q-0.4375 0.0625 -0.625 0.140625q-0.171875 0.078125 -0.265625 0.234375q-0.09375 0.140625 -0.09375 0.328125q0 0.28125 0.203125 0.46875q0.21875 0.1875 0.625 0.1875q0.40625 0 0.71875 -0.171875q0.328125 -0.1875 0.46875 -0.5q0.109375 -0.234375 0.109375 -0.703125l0 -0.25zm3.3398438 1.453125l0.109375 0.609375q-0.296875 0.078125 -0.53125 0.078125q-0.390625 0 -0.609375 -0.125q-0.203125 -0.125 -0.296875 -0.3125q-0.078125 -0.203125 -0.078125 -0.84375l0 -2.390625l-0.515625 0l0 -0.546875l0.515625 0l0 -1.015625l0.703125 -0.421875l0 1.4375l0.703125 0l0 0.546875l-0.703125 0l0 2.4375q0 0.296875 0.03125 0.390625q0.046875 0.078125 0.125 0.125q0.078125 0.046875 0.234375 0.046875q0.125 0 0.3125 -0.015625zm0.69140625 2.21875l0 -5.75l0.640625 0l0 0.546875q0.21875 -0.3125 0.5 -0.46875q0.296875 -0.171875 0.703125 -0.171875q0.53125 0 0.9375 0.28125q0.40625 0.265625 0.609375 0.765625q0.203125 0.5 0.203125 1.09375q0 0.640625 -0.234375 1.15625q-0.21875 0.5 -0.65625 0.78125q-0.4375 0.265625 -0.90625 0.265625q-0.359375 0 -0.640625 -0.140625q-0.28125 -0.15625 -0.453125 -0.390625l0 2.03125l-0.703125 0zm0.640625 -3.640625q0 0.796875 0.3125 1.1875q0.328125 0.375 0.796875 0.375q0.46875 0 0.796875 -0.390625q0.328125 -0.40625 0.328125 -1.234375q0 -0.796875 -0.328125 -1.1875q-0.3125 -0.390625 -0.765625 -0.390625q-0.453125 0 -0.796875 0.421875q-0.34375 0.40625 -0.34375 1.21875zm3.7929688 2.046875l0 -5.734375l0.703125 0l0 5.734375l-0.703125 0zm1.5273438 -2.078125q0 -1.15625 0.640625 -1.703125q0.53125 -0.46875 1.3125 -0.46875q0.84375 0 1.390625 0.5625q0.546875 0.5625 0.546875 1.546875q0 0.8125 -0.25 1.265625q-0.234375 0.453125 -0.703125 0.71875q-0.453125 0.25 -0.984375 0.25q-0.875 0 -1.421875 -0.5625q-0.53125 -0.5625 -0.53125 -1.609375zm0.71875 0q0 0.796875 0.34375 1.203125q0.359375 0.390625 0.890625 0.390625q0.515625 0 0.859375 -0.390625q0.359375 -0.40625 0.359375 -1.21875q0 -0.78125 -0.359375 -1.171875q-0.34375 -0.390625 -0.859375 -0.390625q-0.53125 0 -0.890625 0.390625q-0.34375 0.390625 -0.34375 1.1875zm5.5273438 1.453125l0.109375 0.609375q-0.296875 0.078125 -0.53125 0.078125q-0.390625 0 -0.609375 -0.125q-0.203125 -0.125 -0.296875 -0.3125q-0.078125 -0.203125 -0.078125 -0.84375l0 -2.390625l-0.515625 0l0 -0.546875l0.515625 0l0 -1.015625l0.703125 -0.421875l0 1.4375l0.703125 0l0 0.546875l-0.703125 0l0 2.4375q0 0.296875 0.03125 0.390625q0.046875 0.078125 0.125 0.125q0.078125 0.046875 0.234375 0.046875q0.125 0 0.3125 -0.015625zm0.67578125 0.625l0 -5.734375l0.703125 0l0 5.734375l-0.703125 0zm1.7929688 -4.921875l0 -0.8125l0.703125 0l0 0.8125l-0.703125 0zm0 4.921875l0 -4.15625l0.703125 0l0 4.15625l-0.703125 0zm2.4179688 0l-0.640625 0l0 -5.734375l0.703125 0l0 2.046875q0.4375 -0.5625 1.125 -0.5625q0.390625 0 0.734375 0.15625q0.34375 0.15625 0.5625 0.4375q0.21875 0.28125 0.34375 0.671875q0.125 0.390625 0.125 0.84375q0 1.0625 -0.53125 1.65625q-0.53125 0.578125 -1.265625 0.578125q-0.734375 0 -1.15625 -0.609375l0 0.515625zm0 -2.109375q0 0.75 0.203125 1.078125q0.328125 0.546875 0.890625 0.546875q0.46875 0 0.796875 -0.390625q0.34375 -0.40625 0.34375 -1.203125q0 -0.8125 -0.328125 -1.203125q-0.3125 -0.390625 -0.78125 -0.390625q-0.453125 0 -0.796875 0.40625q-0.328125 0.40625 -0.328125 1.15625zm3.9960938 2.109375l0 -0.796875l0.796875 0l0 0.796875q0 0.4375 -0.15625 0.703125q-0.15625 0.28125 -0.5 0.4375l-0.1875 -0.3125q0.21875 -0.09375 0.3125 -0.28125q0.109375 -0.1875 0.125 -0.546875l-0.390625 0zm3.9765625 -1.234375l0.6875 -0.109375q0.0625 0.40625 0.328125 0.640625q0.265625 0.21875 0.75 0.21875q0.484375 0 0.71875 -0.1875q0.234375 -0.203125 0.234375 -0.46875q0 -0.25 -0.203125 -0.375q-0.140625 -0.09375 -0.71875 -0.25q-0.78125 -0.1875 -1.078125 -0.328125q-0.296875 -0.140625 -0.453125 -0.390625q-0.15625 -0.265625 -0.15625 -0.5625q0 -0.28125 0.125 -0.515625q0.140625 -0.234375 0.359375 -0.390625q0.15625 -0.125 0.4375 -0.203125q0.28125 -0.09375 0.609375 -0.09375q0.484375 0 0.859375 0.140625q0.375 0.140625 0.546875 0.390625q0.171875 0.234375 0.234375 0.640625l-0.6875 0.09375q-0.046875 -0.328125 -0.265625 -0.5q-0.21875 -0.1875 -0.640625 -0.1875q-0.484375 0 -0.6875 0.171875q-0.203125 0.15625 -0.203125 0.375q0 0.125 0.078125 0.234375q0.09375 0.125 0.28125 0.1875q0.09375 0.046875 0.609375 0.1875q0.75 0.203125 1.046875 0.328125q0.296875 0.125 0.453125 0.375q0.171875 0.234375 0.171875 0.59375q0 0.34375 -0.203125 0.65625q-0.203125 0.3125 -0.59375 0.484375q-0.375 0.171875 -0.875 0.171875q-0.796875 0 -1.234375 -0.328125q-0.421875 -0.34375 -0.53125 -1.0zm7.125 -0.109375l0.71875 0.09375q-0.171875 0.640625 -0.640625 1.0q-0.453125 0.34375 -1.1875 0.34375q-0.90625 0 -1.4375 -0.5625q-0.53125 -0.5625 -0.53125 -1.578125q0 -1.046875 0.53125 -1.625q0.546875 -0.578125 1.40625 -0.578125q0.828125 0 1.359375 0.578125q0.53125 0.5625 0.53125 1.59375q0 0.0625 -0.015625 0.1875l-3.09375 0q0.046875 0.671875 0.390625 1.046875q0.34375 0.359375 0.875 0.359375q0.375 0 0.640625 -0.203125q0.28125 -0.203125 0.453125 -0.65625zm-2.3125 -1.125l2.3125 0q-0.046875 -0.53125 -0.265625 -0.796875q-0.328125 -0.40625 -0.875 -0.40625q-0.484375 0 -0.8125 0.328125q-0.328125 0.328125 -0.359375 0.875zm6.6210938 1.953125q-0.390625 0.328125 -0.75 0.46875q-0.359375 0.140625 -0.78125 0.140625q-0.671875 0 -1.046875 -0.328125q-0.359375 -0.34375 -0.359375 -0.859375q0 -0.3125 0.125 -0.5625q0.140625 -0.25 0.359375 -0.390625q0.234375 -0.15625 0.515625 -0.234375q0.203125 -0.0625 0.625 -0.109375q0.859375 -0.109375 1.25 -0.25q0.015625 -0.140625 0.015625 -0.171875q0 -0.4375 -0.203125 -0.609375q-0.265625 -0.234375 -0.796875 -0.234375q-0.5 0 -0.734375 0.171875q-0.234375 0.171875 -0.359375 0.609375l-0.6875 -0.09375q0.09375 -0.4375 0.3125 -0.703125q0.21875 -0.28125 0.625 -0.421875q0.40625 -0.15625 0.9375 -0.15625q0.53125 0 0.859375 0.125q0.34375 0.125 0.5 0.328125q0.15625 0.1875 0.21875 0.46875q0.03125 0.1875 0.03125 0.65625l0 0.9375q0 0.96875 0.046875 1.234375q0.046875 0.265625 0.171875 0.5l-0.734375 0q-0.109375 -0.21875 -0.140625 -0.515625zm-0.0625 -1.5625q-0.375 0.15625 -1.140625 0.265625q-0.4375 0.0625 -0.625 0.140625q-0.171875 0.078125 -0.265625 0.234375q-0.09375 0.140625 -0.09375 0.328125q0 0.28125 0.203125 0.46875q0.21875 0.1875 0.625 0.1875q0.40625 0 0.71875 -0.171875q0.328125 -0.1875 0.46875 -0.5q0.109375 -0.234375 0.109375 -0.703125l0 -0.25zm2.4492188 2.078125l-0.640625 0l0 -5.734375l0.703125 0l0 2.046875q0.4375 -0.5625 1.125 -0.5625q0.390625 0 0.734375 0.15625q0.34375 0.15625 0.5625 0.4375q0.21875 0.28125 0.34375 0.671875q0.125 0.390625 0.125 0.84375q0 1.0625 -0.53125 1.65625q-0.53125 0.578125 -1.265625 0.578125q-0.734375 0 -1.15625 -0.609375l0 0.515625zm0 -2.109375q0 0.75 0.203125 1.078125q0.328125 0.546875 0.890625 0.546875q0.46875 0 0.796875 -0.390625q0.34375 -0.40625 0.34375 -1.203125q0 -0.8125 -0.328125 -1.203125q-0.3125 -0.390625 -0.78125 -0.390625q-0.453125 0 -0.796875 0.40625q-0.328125 0.40625 -0.328125 1.15625zm3.5429688 0.03125q0 -1.15625 0.640625 -1.703125q0.53125 -0.46875 1.3125 -0.46875q0.84375 0 1.390625 0.5625q0.546875 0.5625 0.546875 1.546875q0 0.8125 -0.25 1.265625q-0.234375 0.453125 -0.703125 0.71875q-0.453125 0.25 -0.984375 0.25q-0.875 0 -1.421875 -0.5625q-0.53125 -0.5625 -0.53125 -1.609375zm0.71875 0q0 0.796875 0.34375 1.203125q0.359375 0.390625 0.890625 0.390625q0.515625 0 0.859375 -0.390625q0.359375 -0.40625 0.359375 -1.21875q0 -0.78125 -0.359375 -1.171875q-0.34375 -0.390625 -0.859375 -0.390625q-0.53125 0 -0.890625 0.390625q-0.34375 0.390625 -0.34375 1.1875zm3.9804688 2.078125l0 -4.15625l0.640625 0l0 0.640625q0.234375 -0.453125 0.4375 -0.59375q0.21875 -0.140625 0.453125 -0.140625q0.359375 0 0.734375 0.234375l-0.25 0.65625q-0.25 -0.15625 -0.515625 -0.15625q-0.234375 0 -0.421875 0.140625q-0.171875 0.140625 -0.25 0.375q-0.125 0.375 -0.125 0.828125l0 2.171875l-0.703125 0zm2.6796875 0l0 -4.15625l0.625 0l0 0.59375q0.46875 -0.6875 1.328125 -0.6875q0.375 0 0.6875 0.140625q0.3125 0.140625 0.46875 0.359375q0.15625 0.21875 0.21875 0.515625q0.046875 0.1875 0.046875 0.6875l0 2.546875l-0.703125 0l0 -2.53125q0 -0.421875 -0.09375 -0.625q-0.078125 -0.21875 -0.296875 -0.34375q-0.203125 -0.140625 -0.484375 -0.140625q-0.4375 0 -0.765625 0.296875q-0.328125 0.28125 -0.328125 1.078125l0 2.265625l-0.703125 0zm4.6367188 0l0 -0.796875l0.796875 0l0 0.796875q0 0.4375 -0.15625 0.703125q-0.15625 0.28125 -0.5 0.4375l-0.1875 -0.3125q0.21875 -0.09375 0.3125 -0.28125q0.109375 -0.1875 0.125 -0.546875l-0.390625 0zm3.9765625 -1.234375l0.6875 -0.109375q0.0625 0.40625 0.328125 0.640625q0.265625 0.21875 0.75 0.21875q0.484375 0 0.71875 -0.1875q0.234375 -0.203125 0.234375 -0.46875q0 -0.25 -0.203125 -0.375q-0.140625 -0.09375 -0.71875 -0.25q-0.78125 -0.1875 -1.078125 -0.328125q-0.296875 -0.140625 -0.453125 -0.390625q-0.15625 -0.265625 -0.15625 -0.5625q0 -0.28125 0.125 -0.515625q0.140625 -0.234375 0.359375 -0.390625q0.15625 -0.125 0.4375 -0.203125q0.28125 -0.09375 0.609375 -0.09375q0.484375 0 0.859375 0.140625q0.375 0.140625 0.546875 0.390625q0.171875 0.234375 0.234375 0.640625l-0.6875 0.09375q-0.046875 -0.328125 -0.265625 -0.5q-0.21875 -0.1875 -0.640625 -0.1875q-0.484375 0 -0.6875 0.171875q-0.203125 0.15625 -0.203125 0.375q0 0.125 0.078125 0.234375q0.09375 0.125 0.28125 0.1875q0.09375 0.046875 0.609375 0.1875q0.75 0.203125 1.046875 0.328125q0.296875 0.125 0.453125 0.375q0.171875 0.234375 0.171875 0.59375q0 0.34375 -0.203125 0.65625q-0.203125 0.3125 -0.59375 0.484375q-0.375 0.171875 -0.875 0.171875q-0.796875 0 -1.234375 -0.328125q-0.421875 -0.34375 -0.53125 -1.0zm5.8125 0.609375l0.109375 0.609375q-0.296875 0.078125 -0.53125 0.078125q-0.390625 0 -0.609375 -0.125q-0.203125 -0.125 -0.296875 -0.3125q-0.078125 -0.203125 -0.078125 -0.84375l0 -2.390625l-0.515625 0l0 -0.546875l0.515625 0l0 -1.015625l0.703125 -0.421875l0 1.4375l0.703125 0l0 0.546875l-0.703125 0l0 2.4375q0 0.296875 0.03125 0.390625q0.046875 0.078125 0.125 0.125q0.078125 0.046875 0.234375 0.046875q0.125 0 0.3125 -0.015625zm3.3945312 0.109375q-0.390625 0.328125 -0.75 0.46875q-0.359375 0.140625 -0.78125 0.140625q-0.671875 0 -1.046875 -0.328125q-0.359375 -0.34375 -0.359375 -0.859375q0 -0.3125 0.125 -0.5625q0.140625 -0.25 0.359375 -0.390625q0.234375 -0.15625 0.515625 -0.234375q0.203125 -0.0625 0.625 -0.109375q0.859375 -0.109375 1.25 -0.25q0.015625 -0.140625 0.015625 -0.171875q0 -0.4375 -0.203125 -0.609375q-0.265625 -0.234375 -0.796875 -0.234375q-0.5 0 -0.734375 0.171875q-0.234375 0.171875 -0.359375 0.609375l-0.6875 -0.09375q0.09375 -0.4375 0.3125 -0.703125q0.21875 -0.28125 0.625 -0.421875q0.40625 -0.15625 0.9375 -0.15625q0.53125 0 0.859375 0.125q0.34375 0.125 0.5 0.328125q0.15625 0.1875 0.21875 0.46875q0.03125 0.1875 0.03125 0.65625l0 0.9375q0 0.96875 0.046875 1.234375q0.046875 0.265625 0.171875 0.5l-0.734375 0q-0.109375 -0.21875 -0.140625 -0.515625zm-0.0625 -1.5625q-0.375 0.15625 -1.140625 0.265625q-0.4375 0.0625 -0.625 0.140625q-0.171875 0.078125 -0.265625 0.234375q-0.09375 0.140625 -0.09375 0.328125q0 0.28125 0.203125 0.46875q0.21875 0.1875 0.625 0.1875q0.40625 0 0.71875 -0.171875q0.328125 -0.1875 0.46875 -0.5q0.109375 -0.234375 0.109375 -0.703125l0 -0.25zm3.3398438 1.453125l0.109375 0.609375q-0.296875 0.078125 -0.53125 0.078125q-0.390625 0 -0.609375 -0.125q-0.203125 -0.125 -0.296875 -0.3125q-0.078125 -0.203125 -0.078125 -0.84375l0 -2.390625l-0.515625 0l0 -0.546875l0.515625 0l0 -1.015625l0.703125 -0.421875l0 1.4375l0.703125 0l0 0.546875l-0.703125 0l0 2.4375q0 0.296875 0.03125 0.390625q0.046875 0.078125 0.125 0.125q0.078125 0.046875 0.234375 0.046875q0.125 0 0.3125 -0.015625zm0.41015625 -0.609375l0.6875 -0.109375q0.0625 0.40625 0.328125 0.640625q0.265625 0.21875 0.75 0.21875q0.484375 0 0.71875 -0.1875q0.234375 -0.203125 0.234375 -0.46875q0 -0.25 -0.203125 -0.375q-0.140625 -0.09375 -0.71875 -0.25q-0.78125 -0.1875 -1.078125 -0.328125q-0.296875 -0.140625 -0.453125 -0.390625q-0.15625 -0.265625 -0.15625 -0.5625q0 -0.28125 0.125 -0.515625q0.140625 -0.234375 0.359375 -0.390625q0.15625 -0.125 0.4375 -0.203125q0.28125 -0.09375 0.609375 -0.09375q0.484375 0 0.859375 0.140625q0.375 0.140625 0.546875 0.390625q0.171875 0.234375 0.234375 0.640625l-0.6875 0.09375q-0.046875 -0.328125 -0.265625 -0.5q-0.21875 -0.1875 -0.640625 -0.1875q-0.484375 0 -0.6875 0.171875q-0.203125 0.15625 -0.203125 0.375q0 0.125 0.078125 0.234375q0.09375 0.125 0.28125 0.1875q0.09375 0.046875 0.609375 0.1875q0.75 0.203125 1.046875 0.328125q0.296875 0.125 0.453125 0.375q0.171875 0.234375 0.171875 0.59375q0 0.34375 -0.203125 0.65625q-0.203125 0.3125 -0.59375 0.484375q-0.375 0.171875 -0.875 0.171875q-0.796875 0 -1.234375 -0.328125q-0.421875 -0.34375 -0.53125 -1.0zm4.28125 1.234375l0 -4.15625l0.625 0l0 0.59375q0.203125 -0.3125 0.515625 -0.5q0.328125 -0.1875 0.75 -0.1875q0.453125 0 0.75 0.203125q0.296875 0.1875 0.421875 0.53125q0.484375 -0.734375 1.28125 -0.734375q0.609375 0 0.9375 0.34375q0.34375 0.34375 0.34375 1.0625l0 2.84375l-0.703125 0l0 -2.609375q0 -0.421875 -0.078125 -0.609375q-0.0625 -0.1875 -0.25 -0.296875q-0.171875 -0.125 -0.40625 -0.125q-0.4375 0 -0.734375 0.296875q-0.28125 0.296875 -0.28125 0.9375l0 2.40625l-0.703125 0l0 -2.703125q0 -0.46875 -0.171875 -0.703125q-0.171875 -0.234375 -0.5625 -0.234375q-0.296875 0 -0.5625 0.15625q-0.25 0.15625 -0.359375 0.46875q-0.109375 0.296875 -0.109375 0.859375l0 2.15625l-0.703125 0zm6.3984375 -2.078125q0 -1.15625 0.640625 -1.703125q0.53125 -0.46875 1.3125 -0.46875q0.84375 0 1.390625 0.5625q0.546875 0.5625 0.546875 1.546875q0 0.8125 -0.25 1.265625q-0.234375 0.453125 -0.703125 0.71875q-0.453125 0.25 -0.984375 0.25q-0.875 0 -1.421875 -0.5625q-0.53125 -0.5625 -0.53125 -1.609375zm0.71875 0q0 0.796875 0.34375 1.203125q0.359375 0.390625 0.890625 0.390625q0.515625 0 0.859375 -0.390625q0.359375 -0.40625 0.359375 -1.21875q0 -0.78125 -0.359375 -1.171875q-0.34375 -0.390625 -0.859375 -0.390625q-0.53125 0 -0.890625 0.390625q-0.34375 0.390625 -0.34375 1.1875zm6.6835938 2.078125l0 -0.53125q-0.390625 0.625 -1.15625 0.625q-0.5 0 -0.921875 -0.265625q-0.40625 -0.28125 -0.640625 -0.765625q-0.21875 -0.5 -0.21875 -1.140625q0 -0.609375 0.203125 -1.109375q0.203125 -0.515625 0.609375 -0.78125q0.421875 -0.28125 0.9375 -0.28125q0.375 0 0.65625 0.171875q0.296875 0.15625 0.484375 0.40625l0 -2.0625l0.703125 0l0 5.734375l-0.65625 0zm-2.21875 -2.078125q0 0.796875 0.328125 1.203125q0.34375 0.390625 0.796875 0.390625q0.46875 0 0.78125 -0.375q0.328125 -0.375 0.328125 -1.15625q0 -0.84375 -0.328125 -1.234375q-0.328125 -0.40625 -0.8125 -0.40625q-0.46875 0 -0.78125 0.390625q-0.3125 0.375 -0.3125 1.1875zm6.8242188 0.734375l0.71875 0.09375q-0.171875 0.640625 -0.640625 1.0q-0.453125 0.34375 -1.1875 0.34375q-0.90625 0 -1.4375 -0.5625q-0.53125 -0.5625 -0.53125 -1.578125q0 -1.046875 0.53125 -1.625q0.546875 -0.578125 1.40625 -0.578125q0.828125 0 1.359375 0.578125q0.53125 0.5625 0.53125 1.59375q0 0.0625 -0.015625 0.1875l-3.09375 0q0.046875 0.671875 0.390625 1.046875q0.34375 0.359375 0.875 0.359375q0.375 0 0.640625 -0.203125q0.28125 -0.203125 0.453125 -0.65625zm-2.3125 -1.125l2.3125 0q-0.046875 -0.53125 -0.265625 -0.796875q-0.328125 -0.40625 -0.875 -0.40625q-0.484375 0 -0.8125 0.328125q-0.328125 0.328125 -0.359375 0.875zm3.9023438 2.46875l0 -5.734375l0.703125 0l0 5.734375l-0.703125 0zm1.5117188 -1.234375l0.6875 -0.109375q0.0625 0.40625 0.328125 0.640625q0.265625 0.21875 0.75 0.21875q0.484375 0 0.71875 -0.1875q0.234375 -0.203125 0.234375 -0.46875q0 -0.25 -0.203125 -0.375q-0.140625 -0.09375 -0.71875 -0.25q-0.78125 -0.1875 -1.078125 -0.328125q-0.296875 -0.140625 -0.453125 -0.390625q-0.15625 -0.265625 -0.15625 -0.5625q0 -0.28125 0.125 -0.515625q0.140625 -0.234375 0.359375 -0.390625q0.15625 -0.125 0.4375 -0.203125q0.28125 -0.09375 0.609375 -0.09375q0.484375 0 0.859375 0.140625q0.375 0.140625 0.546875 0.390625q0.171875 0.234375 0.234375 0.640625l-0.6875 0.09375q-0.046875 -0.328125 -0.265625 -0.5q-0.21875 -0.1875 -0.640625 -0.1875q-0.484375 0 -0.6875 0.171875q-0.203125 0.15625 -0.203125 0.375q0 0.125 0.078125 0.234375q0.09375 0.125 0.28125 0.1875q0.09375 0.046875 0.609375 0.1875q0.75 0.203125 1.046875 0.328125q0.296875 0.125 0.453125 0.375q0.171875 0.234375 0.171875 0.59375q0 0.34375 -0.203125 0.65625q-0.203125 0.3125 -0.59375 0.484375q-0.375 0.171875 -0.875 0.171875q-0.796875 0 -1.234375 -0.328125q-0.421875 -0.34375 -0.53125 -1.0zm6.2382812 -0.84375q0 -1.15625 0.640625 -1.703125q0.53125 -0.46875 1.3125 -0.46875q0.84375 0 1.390625 0.5625q0.546875 0.5625 0.546875 1.546875q0 0.8125 -0.25 1.265625q-0.234375 0.453125 -0.703125 0.71875q-0.453125 0.25 -0.984375 0.25q-0.875 0 -1.421875 -0.5625q-0.53125 -0.5625 -0.53125 -1.609375zm0.71875 0q0 0.796875 0.34375 1.203125q0.359375 0.390625 0.890625 0.390625q0.515625 0 0.859375 -0.390625q0.359375 -0.40625 0.359375 -1.21875q0 -0.78125 -0.359375 -1.171875q-0.34375 -0.390625 -0.859375 -0.390625q-0.53125 0 -0.890625 0.390625q-0.34375 0.390625 -0.34375 1.1875zm3.9960938 2.078125l0 -4.15625l0.625 0l0 0.59375q0.46875 -0.6875 1.328125 -0.6875q0.375 0 0.6875 0.140625q0.3125 0.140625 0.46875 0.359375q0.15625 0.21875 0.21875 0.515625q0.046875 0.1875 0.046875 0.6875l0 2.546875l-0.703125 0l0 -2.53125q0 -0.421875 -0.09375 -0.625q-0.078125 -0.21875 -0.296875 -0.34375q-0.203125 -0.140625 -0.484375 -0.140625q-0.4375 0 -0.765625 0.296875q-0.328125 0.28125 -0.328125 1.078125l0 2.265625l-0.703125 0zm6.375 -1.625l0.6875 -0.09375q0.015625 0.65625 0.234375 0.90625q0.21875 0.234375 0.609375 0.234375q0.28125 0 0.484375 -0.125q0.21875 -0.140625 0.296875 -0.359375q0.078125 -0.234375 0.078125 -0.71875l0 -3.953125l0.75 0l0 3.90625q0 0.71875 -0.171875 1.125q-0.171875 0.390625 -0.546875 0.59375q-0.375 0.203125 -0.890625 0.203125q-0.75 0 -1.15625 -0.421875q-0.390625 -0.4375 -0.375 -1.296875zm7.015625 1.625l0 -0.609375q-0.484375 0.703125 -1.3125 0.703125q-0.375 0 -0.703125 -0.140625q-0.3125 -0.140625 -0.46875 -0.34375q-0.140625 -0.21875 -0.203125 -0.53125q-0.046875 -0.203125 -0.046875 -0.65625l0 -2.578125l0.703125 0l0 2.3125q0 0.546875 0.046875 0.734375q0.0625 0.28125 0.265625 0.4375q0.21875 0.15625 0.546875 0.15625q0.3125 0 0.578125 -0.15625q0.28125 -0.171875 0.390625 -0.4375q0.125 -0.28125 0.125 -0.8125l0 -2.234375l0.703125 0l0 4.15625l-0.625 0zm1.7304688 1.59375l0 -5.75l0.640625 0l0 0.546875q0.21875 -0.3125 0.5 -0.46875q0.296875 -0.171875 0.703125 -0.171875q0.53125 0 0.9375 0.28125q0.40625 0.265625 0.609375 0.765625q0.203125 0.5 0.203125 1.09375q0 0.640625 -0.234375 1.15625q-0.21875 0.5 -0.65625 0.78125q-0.4375 0.265625 -0.90625 0.265625q-0.359375 0 -0.640625 -0.140625q-0.28125 -0.15625 -0.453125 -0.390625l0 2.03125l-0.703125 0zm0.640625 -3.640625q0 0.796875 0.3125 1.1875q0.328125 0.375 0.796875 0.375q0.46875 0 0.796875 -0.390625q0.328125 -0.40625 0.328125 -1.234375q0 -0.796875 -0.328125 -1.1875q-0.3125 -0.390625 -0.765625 -0.390625q-0.453125 0 -0.796875 0.421875q-0.34375 0.40625 -0.34375 1.21875zm3.7773438 3.640625l-0.078125 -0.65625q0.234375 0.0625 0.40625 0.0625q0.234375 0 0.375 -0.078125q0.140625 -0.078125 0.21875 -0.21875q0.078125 -0.109375 0.21875 -0.515625q0.015625 -0.0625 0.0625 -0.171875l-1.578125 -4.171875l0.765625 0l0.859375 2.40625q0.171875 0.453125 0.296875 0.96875q0.125 -0.484375 0.296875 -0.953125l0.890625 -2.421875l0.703125 0l-1.578125 4.234375q-0.265625 0.671875 -0.40625 0.9375q-0.1875 0.34375 -0.4375 0.5q-0.234375 0.171875 -0.5625 0.171875q-0.203125 0 -0.453125 -0.09375zm5.5625 -2.21875l0.109375 0.609375q-0.296875 0.078125 -0.53125 0.078125q-0.390625 0 -0.609375 -0.125q-0.203125 -0.125 -0.296875 -0.3125q-0.078125 -0.203125 -0.078125 -0.84375l0 -2.390625l-0.515625 0l0 -0.546875l0.515625 0l0 -1.015625l0.703125 -0.421875l0 1.4375l0.703125 0l0 0.546875l-0.703125 0l0 2.4375q0 0.296875 0.03125 0.390625q0.046875 0.078125 0.125 0.125q0.078125 0.046875 0.234375 0.046875q0.125 0 0.3125 -0.015625zm3.5351562 -0.71875l0.71875 0.09375q-0.171875 0.640625 -0.640625 1.0q-0.453125 0.34375 -1.1875 0.34375q-0.90625 0 -1.4375 -0.5625q-0.53125 -0.5625 -0.53125 -1.578125q0 -1.046875 0.53125 -1.625q0.546875 -0.578125 1.40625 -0.578125q0.828125 0 1.359375 0.578125q0.53125 0.5625 0.53125 1.59375q0 0.0625 -0.015625 0.1875l-3.09375 0q0.046875 0.671875 0.390625 1.046875q0.34375 0.359375 0.875 0.359375q0.375 0 0.640625 -0.203125q0.28125 -0.203125 0.453125 -0.65625zm-2.3125 -1.125l2.3125 0q-0.046875 -0.53125 -0.265625 -0.796875q-0.328125 -0.40625 -0.875 -0.40625q-0.484375 0 -0.8125 0.328125q-0.328125 0.328125 -0.359375 0.875zm3.9023438 2.46875l0 -4.15625l0.640625 0l0 0.640625q0.234375 -0.453125 0.4375 -0.59375q0.21875 -0.140625 0.453125 -0.140625q0.359375 0 0.734375 0.234375l-0.25 0.65625q-0.25 -0.15625 -0.515625 -0.15625q-0.234375 0 -0.421875 0.140625q-0.171875 0.140625 -0.25 0.375q-0.125 0.375 -0.125 0.828125l0 2.171875l-0.703125 0zm4.9804688 0l0 -5.734375l0.78125 0l3.0 4.5l0 -4.5l0.734375 0l0 5.734375l-0.78125 0l-3.0 -4.5l0 4.5l-0.734375 0zm5.4335938 -2.078125q0 -1.15625 0.640625 -1.703125q0.53125 -0.46875 1.3125 -0.46875q0.84375 0 1.390625 0.5625q0.546875 0.5625 0.546875 1.546875q0 0.8125 -0.25 1.265625q-0.234375 0.453125 -0.703125 0.71875q-0.453125 0.25 -0.984375 0.25q-0.875 0 -1.421875 -0.5625q-0.53125 -0.5625 -0.53125 -1.609375zm0.71875 0q0 0.796875 0.34375 1.203125q0.359375 0.390625 0.890625 0.390625q0.515625 0 0.859375 -0.390625q0.359375 -0.40625 0.359375 -1.21875q0 -0.78125 -0.359375 -1.171875q-0.34375 -0.390625 -0.859375 -0.390625q-0.53125 0 -0.890625 0.390625q-0.34375 0.390625 -0.34375 1.1875zm5.5273438 1.453125l0.109375 0.609375q-0.296875 0.078125 -0.53125 0.078125q-0.390625 0 -0.609375 -0.125q-0.203125 -0.125 -0.296875 -0.3125q-0.078125 -0.203125 -0.078125 -0.84375l0 -2.390625l-0.515625 0l0 -0.546875l0.515625 0l0 -1.015625l0.703125 -0.421875l0 1.4375l0.703125 0l0 0.546875l-0.703125 0l0 2.4375q0 0.296875 0.03125 0.390625q0.046875 0.078125 0.125 0.125q0.078125 0.046875 0.234375 0.046875q0.125 0 0.3125 -0.015625zm3.5351562 -0.71875l0.71875 0.09375q-0.171875 0.640625 -0.640625 1.0q-0.453125 0.34375 -1.1875 0.34375q-0.90625 0 -1.4375 -0.5625q-0.53125 -0.5625 -0.53125 -1.578125q0 -1.046875 0.53125 -1.625q0.546875 -0.578125 1.40625 -0.578125q0.828125 0 1.359375 0.578125q0.53125 0.5625 0.53125 1.59375q0 0.0625 -0.015625 0.1875l-3.09375 0q0.046875 0.671875 0.390625 1.046875q0.34375 0.359375 0.875 0.359375q0.375 0 0.640625 -0.203125q0.28125 -0.203125 0.453125 -0.65625zm-2.3125 -1.125l2.3125 0q-0.046875 -0.53125 -0.265625 -0.796875q-0.328125 -0.40625 -0.875 -0.40625q-0.484375 0 -0.8125 0.328125q-0.328125 0.328125 -0.359375 0.875zm4.1210938 2.46875l0 -0.796875l0.796875 0l0 0.796875l-0.796875 0z" fill-rule="nonzero"/></g></svg>